<?xml version="1.0" encoding="UTF-8" standalone="no"?>
<svg
   xmlns:dc="http://purl.org/dc/elements/1.1/"
   xmlns:cc="http://creativecommons.org/ns#"
   xmlns:rdf="http://www.w3.org/1999/02/22-rdf-syntax-ns#"
   xmlns:svg="http://www.w3.org/2000/svg"
   xmlns="http://www.w3.org/2000/svg"
   xmlns:sodipodi="http://sodipodi.sourceforge.net/DTD/sodipodi-0.dtd"
   xmlns:inkscape="http://www.inkscape.org/namespaces/inkscape"
   version="1.1"
   id="svg2"
   xml:space="preserve"
   width="374.88132"
   height="228.59467"
   viewBox="0 0 374.88132 228.59467"
   sodipodi:docname="copyObject.pdf"><metadata
     id="metadata8"><rdf:RDF><cc:Work
         rdf:about=""><dc:format>image/svg+xml</dc:format><dc:type
           rdf:resource="http://purl.org/dc/dcmitype/StillImage" /></cc:Work></rdf:RDF></metadata><defs
     id="defs6" /><sodipodi:namedview
     pagecolor="#ffffff"
     bordercolor="#666666"
     borderopacity="1"
     objecttolerance="10"
     gridtolerance="10"
     guidetolerance="10"
     inkscape:pageopacity="0"
     inkscape:pageshadow="2"
     inkscape:window-width="640"
     inkscape:window-height="480"
     id="namedview4" /><g
     id="g10"
     inkscape:groupmode="layer"
     inkscape:label="copyObject"
     transform="matrix(1.3333333,0,0,-1.3333333,35.007999,10.860009)"><g
       id="g12"><g
         id="g14"><g
           id="g16"><g
             id="g18"
             transform="translate(-22.936,-3.459)"><g
               id="g20"><g
                 id="g22"
                 transform="translate(-3.32,-159.842)"><text
                   transform="matrix(1,0,0,-1,3.32,159.842)"
                   style="font-variant:normal;font-weight:normal;font-size:9.9626px;font-family:Arial;-inkscape-font-specification:Arial;writing-mode:lr-tb;fill:#000000;fill-opacity:1;fill-rule:nonzero;stroke:none"
                   id="text26"><tspan
                     x="0 7.331326 11.75867 14.801793 19.229137 23.129902 27.557245 33.090527 37.517868 41.945213"
                     y="0"
                     sodipodi:role="line"
                     id="tspan24">References</tspan></text><g
                   id="g28"
                   transform="translate(3.32,159.842)" /></g></g><g
               id="g30"
               transform="translate(22.936,3.459)" /></g></g><g
           id="g32"><path
             d="m 21.62149,-23.34705 -34.21007,14.1734 5.86927,-14.1734 -5.86927,-14.17338 z"
             style="fill:none;stroke:#000000;stroke-width:0.3985;stroke-linecap:butt;stroke-linejoin:miter;stroke-miterlimit:10;stroke-dasharray:none;stroke-opacity:1"
             id="path34" /><g
             id="g36"
             transform="translate(-2.628,-25.491)"><g
               id="g38"><g
                 id="g40"
                 transform="translate(-23.628,-137.81)"><text
                   transform="matrix(1,0,0,-1,23.628,137.81)"
                   style="font-variant:normal;font-weight:normal;font-size:9.9626px;font-family:Arial;-inkscape-font-specification:Arial;writing-mode:lr-tb;fill:#000000;fill-opacity:1;fill-rule:nonzero;stroke:none"
                   id="text44"><tspan
                     x="0"
                     y="0"
                     id="tspan42">x</tspan></text><g
                   id="g46"
                   transform="translate(23.628,137.81)" /></g></g><g
               id="g48"
               transform="translate(2.628,25.491)" /></g></g><g
           id="g50"><g
             id="g52"
             transform="translate(60.212,-2.49)"><g
               id="g54"><g
                 id="g56"
                 transform="translate(-86.468,-160.811)"><text
                   transform="matrix(1,0,0,-1,86.468,160.811)"
                   style="font-variant:normal;font-weight:normal;font-size:9.9626px;font-family:Arial;-inkscape-font-specification:Arial;writing-mode:lr-tb;fill:#000000;fill-opacity:1;fill-rule:nonzero;stroke:none"
                   id="text60"><tspan
                     x="0 7.7463517 13.837538 16.880661 21.308004 25.725386 32.926071"
                     y="0"
                     sodipodi:role="line"
                     id="tspan58">Object1</tspan></text><g
                   id="g62"
                   transform="translate(86.468,160.811)" /></g></g><g
               id="g64"
               transform="translate(-60.212,2.49)" /></g></g><g
           id="g66"><path
             d="m 101.07315,-23.47154 -34.1907,14.1734 5.86592,-14.1734 -5.86592,-14.1734 z"
             style="fill:none;stroke:#000000;stroke-width:0.3985;stroke-linecap:butt;stroke-linejoin:miter;stroke-miterlimit:10;stroke-dasharray:none;stroke-opacity:1"
             id="path68" /><g
             id="g70"
             transform="translate(79.164,-23.472)"><g
               id="g72" /><g
               id="g74"
               transform="translate(-79.164,23.472)" /></g></g><g
           id="g76"><path
             d="M 90.3495,-37.8442 H 67.98036 c -1.65069,0 -2.98883,-1.33811 -2.98883,-2.98882 v -22.36914 c 0,-1.6507 1.33814,-2.98884 2.98883,-2.98884 H 90.3495 c 1.65071,0 2.98883,1.33814 2.98883,2.98884 v 22.36914 c 0,1.65071 -1.33812,2.98882 -2.98883,2.98882 z"
             style="fill:none;stroke:#000000;stroke-width:0.3985;stroke-linecap:butt;stroke-linejoin:miter;stroke-miterlimit:10;stroke-dasharray:none;stroke-opacity:1"
             id="path78" /><g
             id="g80"
             transform="translate(71.389,-55.322)"><g
               id="g82"><g
                 id="g84"
                 transform="translate(-97.645,-107.979)"><text
                   transform="matrix(1,0,0,-1,97.645,107.979)"
                   style="font-variant:normal;font-weight:normal;font-size:9.9626px;font-family:Arial;-inkscape-font-specification:Arial;writing-mode:lr-tb;fill:#000000;fill-opacity:1;fill-rule:nonzero;stroke:none"
                   id="text88"><tspan
                     x="0 3.9283528 6.6955924 11.122936"
                     y="0"
                     sodipodi:role="line"
                     id="tspan86">size</tspan></text><g
                   id="g90"
                   transform="translate(97.645,107.979)" /></g></g><g
               id="g92"
               transform="translate(-71.389,55.322)" /></g></g><g
           id="g94"><path
             d="m 64.99153,-94.73703 h 28.34679 v 28.34679 H 64.99153 Z"
             style="fill:none;stroke:#000000;stroke-width:0.3985;stroke-linecap:butt;stroke-linejoin:miter;stroke-miterlimit:10;stroke-dasharray:none;stroke-opacity:1"
             id="path96" /><g
             id="g98"
             transform="translate(76.674,-83.759)"><g
               id="g100"><g
                 id="g102"
                 transform="translate(-102.93,-79.542)"><text
                   transform="matrix(1,0,0,-1,102.93,79.542)"
                   style="font-variant:normal;font-weight:normal;font-size:9.9626px;font-family:Arial;-inkscape-font-specification:Arial;writing-mode:lr-tb;fill:#000000;fill-opacity:1;fill-rule:nonzero;stroke:none"
                   id="text106"><tspan
                     x="0"
                     y="0"
                     id="tspan104">1</tspan></text><g
                   id="g108"
                   transform="translate(102.93,79.542)" /></g></g><g
               id="g110"
               transform="translate(-76.674,83.759)" /></g></g><g
           id="g112"><path
             d="m 64.99153,-123.28308 h 28.34679 v 28.34679 H 64.99153 Z"
             style="fill:none;stroke:#000000;stroke-width:0.3985;stroke-linecap:butt;stroke-linejoin:miter;stroke-miterlimit:10;stroke-dasharray:none;stroke-opacity:1"
             id="path114" /><g
             id="g116"
             transform="translate(76.674,-112.304)"><g
               id="g118"><g
                 id="g120"
                 transform="translate(-102.93,-50.997)"><text
                   transform="matrix(1,0,0,-1,102.93,50.997)"
                   style="font-variant:normal;font-weight:normal;font-size:9.9626px;font-family:Arial;-inkscape-font-specification:Arial;writing-mode:lr-tb;fill:#000000;fill-opacity:1;fill-rule:nonzero;stroke:none"
                   id="text124"><tspan
                     x="0"
                     y="0"
                     id="tspan122">2</tspan></text><g
                   id="g126"
                   transform="translate(102.93,50.997)" /></g></g><g
               id="g128"
               transform="translate(-76.674,112.304)" /></g></g><g
           id="g130"><path
             d="m 64.99153,-151.82913 h 28.34679 v 28.34679 H 64.99153 Z"
             style="fill:none;stroke:#000000;stroke-width:0.3985;stroke-linecap:butt;stroke-linejoin:miter;stroke-miterlimit:10;stroke-dasharray:none;stroke-opacity:1"
             id="path132" /><g
             id="g134"
             transform="translate(76.674,-140.85)"><g
               id="g136"><g
                 id="g138"
                 transform="translate(-102.93,-22.451)"><text
                   transform="matrix(1,0,0,-1,102.93,22.451)"
                   style="font-variant:normal;font-weight:normal;font-size:9.9626px;font-family:Arial;-inkscape-font-specification:Arial;writing-mode:lr-tb;fill:#000000;fill-opacity:1;fill-rule:nonzero;stroke:none"
                   id="text142"><tspan
                     x="0"
                     y="0"
                     id="tspan140">3</tspan></text><g
                   id="g144"
                   transform="translate(102.93,22.451)" /></g></g><g
               id="g146"
               transform="translate(-76.674,140.85)" /></g></g><g
           id="g148"><path
             d="m 56.69363,-2.01695 v -150.15532 c 0,-5.50235 4.46041,-9.96277 9.96277,-9.96277 h 28.26393 c 5.50237,0 9.96277,4.46042 9.96277,9.96277 V -2.01695 c 0,5.50235 -4.4604,9.96275 -9.96277,9.96275 H 66.6564 c -5.50236,0 -9.96277,-4.4604 -9.96277,-9.96275 z"
             style="fill:none;stroke:#000000;stroke-width:0.3985;stroke-linecap:butt;stroke-linejoin:miter;stroke-miterlimit:10;stroke-dasharray:2.98883, 2.98883;stroke-dashoffset:0;stroke-opacity:1"
             id="path150" /></g><path
           d="M 22.14346,-23.34706 48.60405,-5.46649"
           style="fill:none;stroke:#000000;stroke-width:0.3985;stroke-linecap:butt;stroke-linejoin:miter;stroke-miterlimit:10;stroke-dasharray:none;stroke-opacity:1"
           id="path152" /><g
           id="g154"
           transform="matrix(0.82855,0.55989,-0.55989,0.82855,48.60403,-5.4665)"><g
             id="g156"><path
               d="M 8.94199,0 C 7.84386,0.2641 3.0169,1.76059 0,3.38913 V -3.38913 C 3.0169,-1.76059 7.84386,-0.2641 8.94199,0 Z"
               style="fill:none;stroke:#000000;stroke-width:0.3985;stroke-linecap:butt;stroke-linejoin:miter;stroke-miterlimit:10;stroke-dasharray:none;stroke-opacity:1"
               id="path158" /></g></g><g
           id="g160"><g
             id="g162"
             transform="translate(139.376,-2.49)"><g
               id="g164"><g
                 id="g166"
                 transform="translate(-165.632,-160.811)"><text
                   transform="matrix(1,0,0,-1,165.632,160.811)"
                   style="font-variant:normal;font-weight:normal;font-size:9.9626px;font-family:Arial;-inkscape-font-specification:Arial;writing-mode:lr-tb;fill:#000000;fill-opacity:1;fill-rule:nonzero;stroke:none"
                   id="text170"><tspan
                     x="0 7.7463517 13.837538 16.880661 21.308004 25.725386 32.926071"
                     y="0"
                     sodipodi:role="line"
                     id="tspan168">Object2</tspan></text><g
                   id="g172"
                   transform="translate(165.632,160.811)" /></g></g><g
               id="g174"
               transform="translate(-139.376,2.49)" /></g></g><g
           id="g176"><path
             d="m 180.2381,-23.47154 -34.1907,14.1734 5.8659,-14.1734 -5.8659,-14.1734 z"
             style="fill:none;stroke:#000000;stroke-width:0.3985;stroke-linecap:butt;stroke-linejoin:miter;stroke-miterlimit:10;stroke-dasharray:none;stroke-opacity:1"
             id="path178" /><g
             id="g180"
             transform="translate(158.328,-23.472)"><g
               id="g182" /><g
               id="g184"
               transform="translate(-158.328,23.472)" /></g></g><g
           id="g186"><path
             d="m 169.51443,-37.8442 h -22.36912 c -1.65071,0 -2.98883,-1.33811 -2.98883,-2.98882 v -22.36914 c 0,-1.6507 1.33812,-2.98884 2.98883,-2.98884 h 22.36912 c 1.65072,0 2.98884,1.33814 2.98884,2.98884 v 22.36914 c 0,1.65071 -1.33812,2.98882 -2.98884,2.98882 z"
             style="fill:none;stroke:#000000;stroke-width:0.3985;stroke-linecap:butt;stroke-linejoin:miter;stroke-miterlimit:10;stroke-dasharray:none;stroke-opacity:1"
             id="path188" /><g
             id="g190"
             transform="translate(150.553,-55.322)"><g
               id="g192"><g
                 id="g194"
                 transform="translate(-176.809,-107.979)"><text
                   transform="matrix(1,0,0,-1,176.809,107.979)"
                   style="font-variant:normal;font-weight:normal;font-size:9.9626px;font-family:Arial;-inkscape-font-specification:Arial;writing-mode:lr-tb;fill:#000000;fill-opacity:1;fill-rule:nonzero;stroke:none"
                   id="text198"><tspan
                     x="0 3.9283528 6.6955924 11.122936"
                     y="0"
                     sodipodi:role="line"
                     id="tspan196">size</tspan></text><g
                   id="g200"
                   transform="translate(176.809,107.979)" /></g></g><g
               id="g202"
               transform="translate(-150.553,55.322)" /></g></g><g
           id="g204"><path
             d="m 144.15648,-94.73703 h 28.34679 v 28.34679 h -28.34679 z"
             style="fill:none;stroke:#000000;stroke-width:0.3985;stroke-linecap:butt;stroke-linejoin:miter;stroke-miterlimit:10;stroke-dasharray:none;stroke-opacity:1"
             id="path206" /><g
             id="g208"
             transform="translate(155.838,-83.759)"><g
               id="g210"><g
                 id="g212"
                 transform="translate(-182.094,-79.542)"><text
                   transform="matrix(1,0,0,-1,182.094,79.542)"
                   style="font-variant:normal;font-weight:normal;font-size:9.9626px;font-family:Arial;-inkscape-font-specification:Arial;writing-mode:lr-tb;fill:#000000;fill-opacity:1;fill-rule:nonzero;stroke:none"
                   id="text216"><tspan
                     x="0"
                     y="0"
                     id="tspan214">1</tspan></text><g
                   id="g218"
                   transform="translate(182.094,79.542)" /></g></g><g
               id="g220"
               transform="translate(-155.838,83.759)" /></g></g><g
           id="g222"><path
             d="m 144.15648,-123.28308 h 28.34679 v 28.34679 h -28.34679 z"
             style="fill:none;stroke:#000000;stroke-width:0.3985;stroke-linecap:butt;stroke-linejoin:miter;stroke-miterlimit:10;stroke-dasharray:none;stroke-opacity:1"
             id="path224" /><g
             id="g226"
             transform="translate(155.838,-112.304)"><g
               id="g228"><g
                 id="g230"
                 transform="translate(-182.094,-50.997)"><text
                   transform="matrix(1,0,0,-1,182.094,50.997)"
                   style="font-variant:normal;font-weight:normal;font-size:9.9626px;font-family:Arial;-inkscape-font-specification:Arial;writing-mode:lr-tb;fill:#000000;fill-opacity:1;fill-rule:nonzero;stroke:none"
                   id="text234"><tspan
                     x="0"
                     y="0"
                     id="tspan232">2</tspan></text><g
                   id="g236"
                   transform="translate(182.094,50.997)" /></g></g><g
               id="g238"
               transform="translate(-155.838,112.304)" /></g></g><g
           id="g240"><path
             d="m 144.15648,-151.82913 h 28.34679 v 28.34679 h -28.34679 z"
             style="fill:none;stroke:#000000;stroke-width:0.3985;stroke-linecap:butt;stroke-linejoin:miter;stroke-miterlimit:10;stroke-dasharray:none;stroke-opacity:1"
             id="path242" /><g
             id="g244"
             transform="translate(155.838,-140.85)"><g
               id="g246"><g
                 id="g248"
                 transform="translate(-182.094,-22.451)"><text
                   transform="matrix(1,0,0,-1,182.094,22.451)"
                   style="font-variant:normal;font-weight:normal;font-size:9.9626px;font-family:Arial;-inkscape-font-specification:Arial;writing-mode:lr-tb;fill:#000000;fill-opacity:1;fill-rule:nonzero;stroke:none"
                   id="text252"><tspan
                     x="0"
                     y="0"
                     id="tspan250">3</tspan></text><g
                   id="g254"
                   transform="translate(182.094,22.451)" /></g></g><g
               id="g256"
               transform="translate(-155.838,140.85)" /></g></g><g
           id="g258"><path
             d="m 135.85857,-2.01695 v -150.15532 c 0,-5.50235 4.46041,-9.96277 9.96276,-9.96277 h 28.26395 c 5.50235,0 9.96277,4.46042 9.96277,9.96277 V -2.01695 c 0,5.50235 -4.46042,9.96275 -9.96277,9.96275 h -28.26395 c -5.50235,0 -9.96276,-4.4604 -9.96276,-9.96275 z"
             style="fill:none;stroke:#000000;stroke-width:0.3985;stroke-linecap:butt;stroke-linejoin:miter;stroke-miterlimit:10;stroke-dasharray:2.98883, 2.98883;stroke-dashoffset:0;stroke-opacity:1"
             id="path260" /></g><g
           id="g262"><g
             id="g264"
             transform="translate(218.54,-3.459)"><g
               id="g266"><g
                 id="g268"
                 transform="translate(-244.796,-159.842)"><text
                   transform="matrix(1,0,0,-1,244.796,159.842)"
                   style="font-variant:normal;font-weight:normal;font-size:9.9626px;font-family:Arial;-inkscape-font-specification:Arial;writing-mode:lr-tb;fill:#000000;fill-opacity:1;fill-rule:nonzero;stroke:none"
                   id="text272"><tspan
                     x="0 7.1933837 12.452648 17.985928"
                     y="0"
                     sodipodi:role="line"
                     id="tspan270">Code</tspan></text><g
                   id="g274"
                   transform="translate(244.796,159.842)" /></g></g><g
               id="g276"
               transform="translate(-218.54,3.459)" /></g></g><g
           id="g278"><path
             d="m 251.008,-20.08498 -2.85613,2.85624 -2.85623,2.85612 h -31.09551 l -2.85623,-2.85612 -2.85612,-2.85624 v -16.92208 l 2.85612,-2.85625 2.85623,-2.85611 h 31.09551 l 2.85623,2.85611 2.85613,2.85625 z"
             style="fill:none;stroke:#000000;stroke-width:0.3985;stroke-linecap:butt;stroke-linejoin:miter;stroke-miterlimit:10;stroke-dasharray:none;stroke-opacity:1"
             id="path280" /><g
             id="g282"
             transform="translate(219.231,-31.036)"><g
               id="g284"><g
                 id="g286"
                 transform="translate(-245.487,-132.265)"><text
                   transform="matrix(1,0,0,-1,245.487,132.265)"
                   style="font-variant:normal;font-weight:normal;font-size:9.9626px;font-family:Arial;-inkscape-font-specification:Arial;writing-mode:lr-tb;fill:#000000;fill-opacity:1;fill-rule:nonzero;stroke:none"
                   id="text290"><tspan
                     x="0 4.9803119 9.4076557 13.280831 17.154007"
                     y="0"
                     sodipodi:role="line"
                     id="tspan288">get()</tspan></text><g
                   id="g292"
                   transform="translate(245.487,132.265)" /></g></g><g
               id="g294"
               transform="translate(-219.231,31.036)" /></g></g><g
           id="g296"><path
             d="m 251.008,-48.63101 -2.85613,2.85623 -2.85623,2.85612 h -31.09551 l -2.85623,-2.85612 -2.85612,-2.85623 V -65.5531 l 2.85612,-2.85623 2.85623,-2.85613 h 31.09551 l 2.85623,2.85613 2.85613,2.85623 z"
             style="fill:none;stroke:#000000;stroke-width:0.3985;stroke-linecap:butt;stroke-linejoin:miter;stroke-miterlimit:10;stroke-dasharray:none;stroke-opacity:1"
             id="path298" /><g
             id="g300"
             transform="translate(219.757,-59.582)"><g
               id="g302"><g
                 id="g304"
                 transform="translate(-246.013,-103.719)"><text
                   transform="matrix(1,0,0,-1,246.013,103.719)"
                   style="font-variant:normal;font-weight:normal;font-size:9.9626px;font-family:Arial;-inkscape-font-specification:Arial;writing-mode:lr-tb;fill:#000000;fill-opacity:1;fill-rule:nonzero;stroke:none"
                   id="text308"><tspan
                     x="0 3.9283528 8.3556967 12.228872 16.102049"
                     y="0"
                     sodipodi:role="line"
                     id="tspan306">set()</tspan></text><g
                   id="g310"
                   transform="translate(246.013,103.719)" /></g></g><g
               id="g312"
               transform="translate(-219.757,59.582)" /></g></g><g
           id="g314"><path
             d="m 251.008,-77.17705 -2.85613,2.85625 -2.85623,2.85611 h -31.09551 l -2.85623,-2.85611 -2.85612,-2.85625 v -16.92209 l 2.85612,-2.85623 2.85623,-2.85611 h 31.09551 l 2.85623,2.85611 2.85613,2.85623 z"
             style="fill:none;stroke:#000000;stroke-width:0.3985;stroke-linecap:butt;stroke-linejoin:miter;stroke-miterlimit:10;stroke-dasharray:none;stroke-opacity:1"
             id="path316" /><g
             id="g318"
             transform="translate(218.097,-88.127)"><g
               id="g320"><g
                 id="g322"
                 transform="translate(-244.353,-75.174)"><text
                   transform="matrix(1,0,0,-1,244.353,75.174)"
                   style="font-variant:normal;font-weight:normal;font-size:9.9626px;font-family:Arial;-inkscape-font-specification:Arial;writing-mode:lr-tb;fill:#000000;fill-opacity:1;fill-rule:nonzero;stroke:none"
                   id="text326"><tspan
                     x="0 2.7672396 7.7475514 11.675904 15.54908 19.422256"
                     y="0"
                     sodipodi:role="line"
                     id="tspan324">last()</tspan></text><g
                   id="g328"
                   transform="translate(244.353,75.174)" /></g></g><g
               id="g330"
               transform="translate(-218.097,88.127)" /></g></g><g
           id="g332"><path
             d="m 251.008,-105.72308 -2.85613,2.85624 -2.85623,2.85611 h -31.09551 l -2.85623,-2.85611 -2.85612,-2.85624 v -16.92208 l 2.85612,-2.85624 2.85623,-2.85611 h 31.09551 l 2.85623,2.85611 2.85613,2.85624 z"
             style="fill:none;stroke:#000000;stroke-width:0.3985;stroke-linecap:butt;stroke-linejoin:miter;stroke-miterlimit:10;stroke-dasharray:none;stroke-opacity:1"
             id="path334" /><g
             id="g336"
             transform="translate(225.595,-114.709)"><g
               id="g338"><g
                 id="g340"
                 transform="translate(-251.851,-48.592)"><text
                   transform="matrix(1,0,0,-1,251.851,48.592)"
                   style="font-variant:normal;font-weight:normal;font-size:9.9626px;font-family:Arial;-inkscape-font-specification:Arial;writing-mode:lr-tb;fill:#000000;fill-opacity:1;fill-rule:nonzero;stroke:none"
                   id="text344"><tspan
                     x="0 2.7672396 5.5344791"
                     y="0"
                     sodipodi:role="line"
                     id="tspan342">...</tspan></text><g
                   id="g346"
                   transform="translate(251.851,48.592)" /></g></g><g
               id="g348"
               transform="translate(-225.595,114.709)" /></g></g><g
           id="g350"><path
             d="m 200.85011,-2.9853 v -150.15534 c 0,-5.50235 4.46042,-9.96277 9.96277,-9.96277 h 33.93322 c 5.50236,0 9.96276,4.46042 9.96276,9.96277 V -2.9853 c 0,5.50233 -4.4604,9.96275 -9.96276,9.96275 h -33.93322 c -5.50235,0 -9.96277,-4.46042 -9.96277,-9.96275 z"
             style="fill:none;stroke:#000000;stroke-width:0.3985;stroke-linecap:butt;stroke-linejoin:miter;stroke-miterlimit:10;stroke-dasharray:2.98883, 2.98883;stroke-dashoffset:0;stroke-opacity:1"
             id="path352" /></g><path
           d="m 101.59566,-23.47154 103.8674,21.49325"
           style="fill:none;stroke:#000000;stroke-width:0.3985;stroke-linecap:butt;stroke-linejoin:miter;stroke-miterlimit:10;stroke-dasharray:none;stroke-opacity:1"
           id="path354" /><g
           id="g356"
           transform="matrix(0.9792,0.20262,-0.20262,0.9792,205.46304,-1.9783)"><g
             id="g358"><path
               d="M 8.94199,0 C 7.84386,0.2641 3.0169,1.76059 0,3.38913 V -3.38913 C 3.0169,-1.76059 7.84386,-0.2641 8.94199,0 Z"
               style="fill:none;stroke:#000000;stroke-width:0.3985;stroke-linecap:butt;stroke-linejoin:miter;stroke-miterlimit:10;stroke-dasharray:none;stroke-opacity:1"
               id="path360" /></g></g><path
           d="m 180.76059,-23.47154 26.20865,17.9541"
           style="fill:none;stroke:#000000;stroke-width:0.3985;stroke-linecap:butt;stroke-linejoin:miter;stroke-miterlimit:10;stroke-dasharray:none;stroke-opacity:1"
           id="path362" /><g
           id="g364"
           transform="matrix(0.82494,0.56511,-0.56511,0.82494,206.96922,-5.51746)"><g
             id="g366"><path
               d="M 8.94199,0 C 7.84386,0.2641 3.0169,1.76059 0,3.38913 V -3.38913 C 3.0169,-1.76059 7.84386,-0.2641 8.94199,0 Z"
               style="fill:none;stroke:#000000;stroke-width:0.3985;stroke-linecap:butt;stroke-linejoin:miter;stroke-miterlimit:10;stroke-dasharray:none;stroke-opacity:1"
               id="path368" /></g></g><g
           id="g370"><path
             d="m 22.18336,-46.93167 -34.19342,14.17338 5.86644,-14.17338 -5.86644,-14.1734 z"
             style="fill:none;stroke:#000000;stroke-width:0.3985;stroke-linecap:butt;stroke-linejoin:miter;stroke-miterlimit:10;stroke-dasharray:none;stroke-opacity:1"
             id="path372" /><g
             id="g374"
             transform="translate(-2.628,-48.107)"><g
               id="g376"><g
                 id="g378"
                 transform="translate(-23.628,-115.194)"><text
                   transform="matrix(1,0,0,-1,23.628,115.194)"
                   style="font-variant:normal;font-weight:normal;font-size:9.9626px;font-family:Arial;-inkscape-font-specification:Arial;writing-mode:lr-tb;fill:#000000;fill-opacity:1;fill-rule:nonzero;stroke:none"
                   id="text382"><tspan
                     x="0"
                     y="0"
                     id="tspan380">y</tspan></text><g
                   id="g384"
                   transform="translate(23.628,115.194)" /></g></g><g
               id="g386"
               transform="translate(2.628,48.107)" /></g></g><path
           d="M 22.70583,-46.93164 126.84056,-3.74025"
           style="fill:none;stroke:#000000;stroke-width:0.3985;stroke-linecap:butt;stroke-linejoin:miter;stroke-miterlimit:10;stroke-dasharray:none;stroke-opacity:1"
           id="path388" /><g
           id="g390"
           transform="matrix(0.92365,0.38309,-0.38309,0.92365,126.84055,-3.74026)"><g
             id="g392"><path
               d="M 8.94199,0 C 7.84386,0.2641 3.0169,1.76059 0,3.38913 V -3.38913 C 3.0169,-1.76059 7.84386,-0.2641 8.94199,0 Z"
               style="fill:none;stroke:#000000;stroke-width:0.3985;stroke-linecap:butt;stroke-linejoin:miter;stroke-miterlimit:10;stroke-dasharray:none;stroke-opacity:1"
               id="path394" /></g></g></g></g></g></svg>
