<?xml version="1.0" encoding="UTF-8" standalone="no"?>
<svg
   xmlns:dc="http://purl.org/dc/elements/1.1/"
   xmlns:cc="http://creativecommons.org/ns#"
   xmlns:rdf="http://www.w3.org/1999/02/22-rdf-syntax-ns#"
   xmlns:svg="http://www.w3.org/2000/svg"
   xmlns="http://www.w3.org/2000/svg"
   viewBox="0 0 278.58932 275.35333"
   height="275.35333"
   width="278.58932"
   xml:space="preserve"
   id="svg2"
   version="1.1"><metadata
     id="metadata8"><rdf:RDF><cc:Work
         rdf:about=""><dc:format>image/svg+xml</dc:format><dc:type
           rdf:resource="http://purl.org/dc/dcmitype/StillImage" /></cc:Work></rdf:RDF></metadata><defs
     id="defs6" /><g
     transform="matrix(1.3333333,0,0,-1.3333333,32.387999,48.050669)"
     id="g10"><g
       id="g12"><g
         id="g14"><g
           id="g16"><g
             transform="translate(-20.971,-3.458)"
             id="g18"><g
               id="g20"><g
                 transform="translate(-3.32,-167.019)"
                 id="g22"><text
                   id="text26"
                   style="font-variant:normal;font-weight:normal;font-size:9.96259975px;font-family:Arial;-inkscape-font-specification:Arial;writing-mode:lr-tb;fill:#000000;fill-opacity:1;fill-rule:nonzero;stroke:none"
                   transform="matrix(1,0,0,-1,3.32,167.019)"><tspan
                     id="tspan24"
                     y="0"
                     x="0 7.331326 11.75867 14.801793 19.229137 23.129902 27.557245 33.090527 37.517868">Reference</tspan></text>
<g
                   transform="translate(3.32,167.019)"
                   id="g28" /></g></g><g
               transform="translate(20.971,3.458)"
               id="g30" /></g></g><g
           id="g32"><path
             id="path34"
             style="fill:none;stroke:#000000;stroke-width:0.3985;stroke-linecap:butt;stroke-linejoin:miter;stroke-miterlimit:10;stroke-dasharray:none;stroke-opacity:1"
             d="m 21.62149,-23.34705 -34.21007,14.1734 5.86927,-14.1734 -5.86927,-14.17338 z" /><g
             transform="translate(-2.628,-25.491)"
             id="g36"><g
               id="g38"><g
                 transform="translate(-21.663,-144.986)"
                 id="g40"><text
                   id="text44"
                   style="font-variant:normal;font-weight:normal;font-size:9.96259975px;font-family:Arial;-inkscape-font-specification:Arial;writing-mode:lr-tb;fill:#000000;fill-opacity:1;fill-rule:nonzero;stroke:none"
                   transform="matrix(1,0,0,-1,21.663,144.986)"><tspan
                     id="tspan42"
                     y="0"
                     x="0">x</tspan></text>
<g
                   transform="translate(21.663,144.986)"
                   id="g46" /></g></g><g
               transform="translate(2.628,25.491)"
               id="g48" /></g></g><g
           id="g50"><g
             transform="translate(60.212,-3.403)"
             id="g52"><g
               id="g54"><g
                 transform="translate(-84.503,-167.074)"
                 id="g56"><text
                   id="text60"
                   style="font-variant:normal;font-weight:normal;font-size:9.96259975px;font-family:Arial;-inkscape-font-specification:Arial;writing-mode:lr-tb;fill:#000000;fill-opacity:1;fill-rule:nonzero;stroke:none"
                   transform="matrix(1,0,0,-1,84.503,167.074)"><tspan
                     id="tspan58"
                     y="0"
                     x="0 7.6084099 12.588721 16.461897">Data</tspan></text>
<g
                   transform="translate(84.503,167.074)"
                   id="g62" /></g></g><g
               transform="translate(-60.212,3.403)"
               id="g64" /></g></g><g
           id="g66"><path
             id="path68"
             style="fill:none;stroke:#000000;stroke-width:0.3985;stroke-linecap:butt;stroke-linejoin:miter;stroke-miterlimit:10;stroke-dasharray:none;stroke-opacity:1"
             d="m 92.84204,-23.47154 -34.1907,14.1734 5.8659,-14.1734 -5.8659,-14.1734 z" /><g
             transform="translate(70.933,-23.471)"
             id="g70"><g
               id="g72" /><g
               transform="translate(-70.933,23.471)"
               id="g74" /></g></g><g
           id="g76"><path
             id="path78"
             style="fill:none;stroke:#000000;stroke-width:0.3985;stroke-linecap:butt;stroke-linejoin:miter;stroke-miterlimit:10;stroke-dasharray:none;stroke-opacity:1"
             d="M 82.1184,-37.8442 H 59.74925 c -1.65071,0 -2.98883,-1.33811 -2.98883,-2.98882 v -22.36914 c 0,-1.6507 1.33812,-2.98884 2.98883,-2.98884 H 82.1184 c 1.65069,0 2.98882,1.33814 2.98882,2.98884 v 22.36914 c 0,1.65071 -1.33813,2.98882 -2.98882,2.98882 z" /><g
             transform="translate(63.159,-55.321)"
             id="g80"><g
               id="g82"><g
                 transform="translate(-87.45,-115.156)"
                 id="g84"><text
                   id="text88"
                   style="font-variant:normal;font-weight:normal;font-size:9.96259975px;font-family:Arial;-inkscape-font-specification:Arial;writing-mode:lr-tb;fill:#000000;fill-opacity:1;fill-rule:nonzero;stroke:none"
                   transform="matrix(1,0,0,-1,87.45,115.156)"><tspan
                     id="tspan86"
                     y="0"
                     x="0 3.9283528 6.6955924 11.122936">size</tspan></text>
<g
                   transform="translate(87.45,115.156)"
                   id="g90" /></g></g><g
               transform="translate(-63.159,55.321)"
               id="g92" /></g></g><g
           id="g94"><path
             id="path96"
             style="fill:none;stroke:#000000;stroke-width:0.3985;stroke-linecap:butt;stroke-linejoin:miter;stroke-miterlimit:10;stroke-dasharray:none;stroke-opacity:1"
             d="m 56.76042,-94.73703 h 28.34679 v 28.34679 H 56.76042 Z" /><g
             transform="translate(68.443,-83.758)"
             id="g98"><g
               id="g100"><g
                 transform="translate(-92.734,-86.719)"
                 id="g102"><text
                   id="text106"
                   style="font-variant:normal;font-weight:normal;font-size:9.96259975px;font-family:Arial;-inkscape-font-specification:Arial;writing-mode:lr-tb;fill:#000000;fill-opacity:1;fill-rule:nonzero;stroke:none"
                   transform="matrix(1,0,0,-1,92.734,86.719)"><tspan
                     id="tspan104"
                     y="0"
                     x="0">1</tspan></text>
<g
                   transform="translate(92.734,86.719)"
                   id="g108" /></g></g><g
               transform="translate(-68.443,83.758)"
               id="g110" /></g></g><g
           id="g112"><path
             id="path114"
             style="fill:none;stroke:#000000;stroke-width:0.3985;stroke-linecap:butt;stroke-linejoin:miter;stroke-miterlimit:10;stroke-dasharray:none;stroke-opacity:1"
             d="m 56.76042,-123.28308 h 28.34679 v 28.34679 H 56.76042 Z" /><g
             transform="translate(68.443,-112.304)"
             id="g116"><g
               id="g118"><g
                 transform="translate(-92.734,-58.173)"
                 id="g120"><text
                   id="text124"
                   style="font-variant:normal;font-weight:normal;font-size:9.96259975px;font-family:Arial;-inkscape-font-specification:Arial;writing-mode:lr-tb;fill:#000000;fill-opacity:1;fill-rule:nonzero;stroke:none"
                   transform="matrix(1,0,0,-1,92.734,58.173)"><tspan
                     id="tspan122"
                     y="0"
                     x="0">2</tspan></text>
<g
                   transform="translate(92.734,58.173)"
                   id="g126" /></g></g><g
               transform="translate(-68.443,112.304)"
               id="g128" /></g></g><g
           id="g130"><path
             id="path132"
             style="fill:none;stroke:#000000;stroke-width:0.3985;stroke-linecap:butt;stroke-linejoin:miter;stroke-miterlimit:10;stroke-dasharray:none;stroke-opacity:1"
             d="m 56.76042,-151.82913 h 28.34679 v 28.34679 H 56.76042 Z" /><g
             transform="translate(68.443,-140.849)"
             id="g134"><g
               id="g136"><g
                 transform="translate(-92.734,-29.628)"
                 id="g138"><text
                   id="text142"
                   style="font-variant:normal;font-weight:normal;font-size:9.96259975px;font-family:Arial;-inkscape-font-specification:Arial;writing-mode:lr-tb;fill:#000000;fill-opacity:1;fill-rule:nonzero;stroke:none"
                   transform="matrix(1,0,0,-1,92.734,29.628)"><tspan
                     id="tspan140"
                     y="0"
                     x="0">3</tspan></text>
<g
                   transform="translate(92.734,29.628)"
                   id="g144" /></g></g><g
               transform="translate(-68.443,140.849)"
               id="g146" /></g></g><g
           id="g148"><path
             id="path150"
             style="fill:none;stroke:#000000;stroke-width:0.3985;stroke-linecap:butt;stroke-linejoin:miter;stroke-miterlimit:10;stroke-dasharray:2.98883, 2.98883;stroke-dashoffset:0;stroke-opacity:1"
             d="m 56.69363,-3.04065 v -150.15532 c 0,-5.50235 4.46041,-9.96277 9.96277,-9.96277 h 22.59467 c 5.50235,0 9.96277,4.46042 9.96277,9.96277 V -3.04065 c 0,5.50235 -4.46042,9.96275 -9.96277,9.96275 H 66.6564 c -5.50236,0 -9.96277,-4.4604 -9.96277,-9.96275 z" /></g><path
           id="path152"
           style="fill:none;stroke:#000000;stroke-width:0.3985;stroke-linecap:butt;stroke-linejoin:miter;stroke-miterlimit:10;stroke-dasharray:none;stroke-opacity:1"
           d="M 22.14346,-23.34706 48.60405,-5.46649" /><g
           transform="matrix(0.82855,0.55989,-0.55989,0.82855,48.60403,-5.4665)"
           id="g154"><g
             id="g156"><path
               id="path158"
               style="fill:none;stroke:#000000;stroke-width:0.3985;stroke-linecap:butt;stroke-linejoin:miter;stroke-miterlimit:10;stroke-dasharray:none;stroke-opacity:1"
               d="M 8.94199,0 C 7.84386,0.2641 3.0169,1.76059 0,3.38913 V -3.38913 C 3.0169,-1.76059 7.84386,-0.2641 8.94199,0 Z" /></g></g><g
           id="g160"><g
             transform="translate(131.145,-3.458)"
             id="g162"><g
               id="g164"><g
                 transform="translate(-155.436,-167.019)"
                 id="g166"><text
                   id="text170"
                   style="font-variant:normal;font-weight:normal;font-size:9.96259975px;font-family:Arial;-inkscape-font-specification:Arial;writing-mode:lr-tb;fill:#000000;fill-opacity:1;fill-rule:nonzero;stroke:none"
                   transform="matrix(1,0,0,-1,155.436,167.019)"><tspan
                     id="tspan168"
                     y="0"
                     x="0 7.1933837 12.452648 17.985928">Code</tspan></text>
<g
                   transform="translate(155.436,167.019)"
                   id="g172" /></g></g><g
               transform="translate(-131.145,3.458)"
               id="g174" /></g></g><g
           id="g176"><path
             id="path178"
             style="fill:none;stroke:#000000;stroke-width:0.3985;stroke-linecap:butt;stroke-linejoin:miter;stroke-miterlimit:10;stroke-dasharray:none;stroke-opacity:1"
             d="m 163.61194,-20.08498 -2.85613,2.85624 -2.85623,2.85612 H 126.8041 l -2.85625,-2.85612 -2.85611,-2.85624 v -16.92208 l 2.85611,-2.85625 2.85625,-2.85611 h 31.09548 l 2.85623,2.85611 2.85613,2.85625 z" /><g
             transform="translate(131.837,-31.036)"
             id="g180"><g
               id="g182"><g
                 transform="translate(-156.128,-139.441)"
                 id="g184"><text
                   id="text188"
                   style="font-variant:normal;font-weight:normal;font-size:9.96259975px;font-family:Arial;-inkscape-font-specification:Arial;writing-mode:lr-tb;fill:#000000;fill-opacity:1;fill-rule:nonzero;stroke:none"
                   transform="matrix(1,0,0,-1,156.128,139.441)"><tspan
                     id="tspan186"
                     y="0"
                     x="0 4.9803119 9.4076557 13.280831 17.154007">get()</tspan></text>
<g
                   transform="translate(156.128,139.441)"
                   id="g190" /></g></g><g
               transform="translate(-131.837,31.036)"
               id="g192" /></g></g><g
           id="g194"><path
             id="path196"
             style="fill:none;stroke:#000000;stroke-width:0.3985;stroke-linecap:butt;stroke-linejoin:miter;stroke-miterlimit:10;stroke-dasharray:none;stroke-opacity:1"
             d="m 163.61194,-48.63101 -2.85613,2.85623 -2.85623,2.85612 H 126.8041 l -2.85625,-2.85612 -2.85611,-2.85623 V -65.5531 l 2.85611,-2.85623 2.85625,-2.85613 h 31.09548 l 2.85623,2.85613 2.85613,2.85623 z" /><g
             transform="translate(132.363,-59.581)"
             id="g198"><g
               id="g200"><g
                 transform="translate(-156.654,-110.896)"
                 id="g202"><text
                   id="text206"
                   style="font-variant:normal;font-weight:normal;font-size:9.96259975px;font-family:Arial;-inkscape-font-specification:Arial;writing-mode:lr-tb;fill:#000000;fill-opacity:1;fill-rule:nonzero;stroke:none"
                   transform="matrix(1,0,0,-1,156.654,110.896)"><tspan
                     id="tspan204"
                     y="0"
                     x="0 3.9283528 8.3556967 12.228872 16.102049">set()</tspan></text>
<g
                   transform="translate(156.654,110.896)"
                   id="g208" /></g></g><g
               transform="translate(-132.363,59.581)"
               id="g210" /></g></g><g
           id="g212"><path
             id="path214"
             style="fill:none;stroke:#000000;stroke-width:0.3985;stroke-linecap:butt;stroke-linejoin:miter;stroke-miterlimit:10;stroke-dasharray:none;stroke-opacity:1"
             d="m 163.61194,-77.17705 -2.85613,2.85625 -2.85623,2.85611 H 126.8041 l -2.85625,-2.85611 -2.85611,-2.85625 v -16.92209 l 2.85611,-2.85623 2.85625,-2.85611 h 31.09548 l 2.85623,2.85611 2.85613,2.85623 z" /><g
             transform="translate(130.703,-88.127)"
             id="g216"><g
               id="g218"><g
                 transform="translate(-154.994,-82.35)"
                 id="g220"><text
                   id="text224"
                   style="font-variant:normal;font-weight:normal;font-size:9.96259975px;font-family:Arial;-inkscape-font-specification:Arial;writing-mode:lr-tb;fill:#000000;fill-opacity:1;fill-rule:nonzero;stroke:none"
                   transform="matrix(1,0,0,-1,154.994,82.35)"><tspan
                     id="tspan222"
                     y="0"
                     x="0 2.7672396 7.7475514 11.675904 15.54908 19.422256">last()</tspan></text>
<g
                   transform="translate(154.994,82.35)"
                   id="g226" /></g></g><g
               transform="translate(-130.703,88.127)"
               id="g228" /></g></g><g
           id="g230"><path
             id="path232"
             style="fill:none;stroke:#000000;stroke-width:0.3985;stroke-linecap:butt;stroke-linejoin:miter;stroke-miterlimit:10;stroke-dasharray:none;stroke-opacity:1"
             d="m 163.61194,-105.72308 -2.85613,2.85624 -2.85623,2.85611 H 126.8041 l -2.85625,-2.85611 -2.85611,-2.85624 v -16.92208 l 2.85611,-2.85624 2.85625,-2.85611 h 31.09548 l 2.85623,2.85611 2.85613,2.85624 z" /><g
             transform="translate(138.2,-114.708)"
             id="g234"><g
               id="g236"><g
                 transform="translate(-162.491,-55.769)"
                 id="g238"><text
                   id="text242"
                   style="font-variant:normal;font-weight:normal;font-size:9.96259975px;font-family:Arial;-inkscape-font-specification:Arial;writing-mode:lr-tb;fill:#000000;fill-opacity:1;fill-rule:nonzero;stroke:none"
                   transform="matrix(1,0,0,-1,162.491,55.769)"><tspan
                     id="tspan240"
                     y="0"
                     x="0 2.7672396 5.5344791">...</tspan></text>
<g
                   transform="translate(162.491,55.769)"
                   id="g244" /></g></g><g
               transform="translate(-138.2,114.708)"
               id="g246" /></g></g><g
           id="g248"><path
             id="path250"
             style="fill:none;stroke:#000000;stroke-width:0.3985;stroke-linecap:butt;stroke-linejoin:miter;stroke-miterlimit:10;stroke-dasharray:2.98883, 2.98883;stroke-dashoffset:0;stroke-opacity:1"
             d="m 113.45406,-2.9853 v -150.15534 c 0,-5.50235 4.46041,-9.96277 9.96276,-9.96277 h 36.76807 c 5.50237,0 9.96277,4.46042 9.96277,9.96277 V -2.9853 c 0,5.50233 -4.4604,9.96275 -9.96277,9.96275 h -36.76807 c -5.50235,0 -9.96276,-4.46042 -9.96276,-9.96275 z" /></g><path
           id="path252"
           style="fill:none;stroke:#000000;stroke-width:0.3985;stroke-linecap:butt;stroke-linejoin:miter;stroke-miterlimit:10;stroke-dasharray:none;stroke-opacity:1"
           d="m 93.36453,-23.47154 26.20867,17.9541" /><g
           transform="matrix(0.82494,0.56511,-0.56511,0.82494,119.57318,-5.51746)"
           id="g254"><g
             id="g256"><path
               id="path258"
               style="fill:none;stroke:#000000;stroke-width:0.3985;stroke-linecap:butt;stroke-linejoin:miter;stroke-miterlimit:10;stroke-dasharray:none;stroke-opacity:1"
               d="M 8.94199,0 C 7.84386,0.2641 3.0169,1.76059 0,3.38913 V -3.38913 C 3.0169,-1.76059 7.84386,-0.2641 8.94199,0 Z" /></g></g><g
           id="g260"><path
             id="path262"
             style="fill:none;stroke:#000000;stroke-width:0.79701;stroke-linecap:butt;stroke-linejoin:miter;stroke-miterlimit:10;stroke-dasharray:0.79701, 1.99255;stroke-dashoffset:0;stroke-opacity:1"
             d="M 42.52023,35.26892 V -170.08086 H 184.25424 V 35.26892 Z" /></g><g
           id="g264"><g
             transform="translate(95.712,25.912)"
             id="g266"><g
               id="g268"><g
                 transform="translate(-120.003,-196.389)"
                 id="g270"><text
                   id="text274"
                   style="font-variant:normal;font-weight:normal;font-size:9.96259975px;font-family:Arial;-inkscape-font-specification:Arial;writing-mode:lr-tb;fill:#000000;fill-opacity:1;fill-rule:nonzero;stroke:none"
                   transform="matrix(1,0,0,-1,120.003,196.389)"><tspan
                     id="tspan272"
                     y="0"
                     x="0 6.9144311 12.170627 17.982861">Type</tspan></text>
<g
                   transform="translate(120.003,196.389)"
                   id="g276" /></g></g><g
               transform="translate(-95.712,-25.912)"
               id="g278" /></g></g></g></g></g></svg>