<?xml version="1.0" encoding="UTF-8" standalone="no"?><svg xmlns="http://www.w3.org/2000/svg" xmlns:xlink="http://www.w3.org/1999/xlink" contentScriptType="application/ecmascript" contentStyleType="text/css" height="370px" preserveAspectRatio="none" style="width:427px;height:370px;" version="1.1" viewBox="0 0 427 370" width="427px" zoomAndPan="magnify"><defs><filter height="300%" id="f1egre47jahib3" width="300%" x="-1" y="-1"><feGaussianBlur result="blurOut" stdDeviation="2.0"/><feColorMatrix in="blurOut" result="blurOut2" type="matrix" values="0 0 0 0 0 0 0 0 0 0 0 0 0 0 0 0 0 0 .4 0"/><feOffset dx="4.0" dy="4.0" in="blurOut2" result="blurOut3"/><feBlend in="SourceGraphic" in2="blurOut3" mode="normal"/></filter></defs><g><rect fill="#FFFFFF" filter="url(#f1egre47jahib3)" height="75.3984" style="stroke: #000000; stroke-width: 2.0;" width="247" x="161.5" y="161.5625"/><line style="stroke: #A80036; stroke-width: 1.0; stroke-dasharray: 5.0,5.0;" x1="30" x2="30" y1="86.2969" y2="283.0938"/><line style="stroke: #A80036; stroke-width: 1.0; stroke-dasharray: 5.0,5.0;" x1="122.5" x2="122.5" y1="86.2969" y2="283.0938"/><line style="stroke: #A80036; stroke-width: 1.0; stroke-dasharray: 5.0,5.0;" x1="203.5" x2="203.5" y1="86.2969" y2="283.0938"/><line style="stroke: #A80036; stroke-width: 1.0; stroke-dasharray: 5.0,5.0;" x1="289.5" x2="289.5" y1="86.2969" y2="283.0938"/><line style="stroke: #A80036; stroke-width: 1.0; stroke-dasharray: 5.0,5.0;" x1="368.5" x2="368.5" y1="86.2969" y2="283.0938"/><text fill="#000000" font-family="sans-serif" font-size="14" lengthAdjust="spacingAndGlyphs" textLength="39" x="8" y="82.9951">Tutor</text><ellipse cx="30.5" cy="13" fill="#FEFECE" filter="url(#f1egre47jahib3)" rx="8" ry="8" style="stroke: #A80036; stroke-width: 2.0;"/><path d="M30.5,21 L30.5,48 M17.5,29 L43.5,29 M30.5,48 L17.5,63 M30.5,48 L43.5,63 " fill="none" filter="url(#f1egre47jahib3)" style="stroke: #A80036; stroke-width: 2.0;"/><text fill="#000000" font-family="sans-serif" font-size="14" lengthAdjust="spacingAndGlyphs" textLength="39" x="8" y="295.0889">Tutor</text><ellipse cx="30.5" cy="308.3906" fill="#FEFECE" filter="url(#f1egre47jahib3)" rx="8" ry="8" style="stroke: #A80036; stroke-width: 2.0;"/><path d="M30.5,316.3906 L30.5,343.3906 M17.5,324.3906 L43.5,324.3906 M30.5,343.3906 L17.5,358.3906 M30.5,343.3906 L43.5,358.3906 " fill="none" filter="url(#f1egre47jahib3)" style="stroke: #A80036; stroke-width: 2.0;"/><rect fill="#FEFECE" filter="url(#f1egre47jahib3)" height="30.2969" style="stroke: #A80036; stroke-width: 1.5;" width="70" x="87.5" y="47"/><rect fill="#FEFECE" filter="url(#f1egre47jahib3)" height="30.2969" style="stroke: #A80036; stroke-width: 1.5;" width="70" x="83.5" y="51"/><text fill="#000000" font-family="sans-serif" font-size="14" lengthAdjust="spacingAndGlyphs" textLength="56" x="90.5" y="70.9951">Courses</text><rect fill="#FEFECE" filter="url(#f1egre47jahib3)" height="30.2969" style="stroke: #A80036; stroke-width: 1.5;" width="70" x="87.5" y="282.0938"/><rect fill="#FEFECE" filter="url(#f1egre47jahib3)" height="30.2969" style="stroke: #A80036; stroke-width: 1.5;" width="70" x="83.5" y="286.0938"/><text fill="#000000" font-family="sans-serif" font-size="14" lengthAdjust="spacingAndGlyphs" textLength="56" x="90.5" y="306.0889">Courses</text><rect fill="#FEFECE" filter="url(#f1egre47jahib3)" height="30.2969" style="stroke: #A80036; stroke-width: 1.5;" width="61" x="171.5" y="51"/><text fill="#000000" font-family="sans-serif" font-size="14" lengthAdjust="spacingAndGlyphs" textLength="47" x="178.5" y="70.9951">course</text><rect fill="#FEFECE" filter="url(#f1egre47jahib3)" height="30.2969" style="stroke: #A80036; stroke-width: 1.5;" width="61" x="171.5" y="282.0938"/><text fill="#000000" font-family="sans-serif" font-size="14" lengthAdjust="spacingAndGlyphs" textLength="47" x="178.5" y="302.0889">course</text><rect fill="#FEFECE" filter="url(#f1egre47jahib3)" height="30.2969" style="stroke: #A80036; stroke-width: 1.5;" width="45" x="265.5" y="51"/><text fill="#000000" font-family="sans-serif" font-size="14" lengthAdjust="spacingAndGlyphs" textLength="31" x="272.5" y="70.9951">task</text><rect fill="#FEFECE" filter="url(#f1egre47jahib3)" height="30.2969" style="stroke: #A80036; stroke-width: 1.5;" width="45" x="265.5" y="282.0938"/><text fill="#000000" font-family="sans-serif" font-size="14" lengthAdjust="spacingAndGlyphs" textLength="31" x="272.5" y="302.0889">task</text><rect fill="#FEFECE" filter="url(#f1egre47jahib3)" height="30.2969" style="stroke: #A80036; stroke-width: 1.5;" width="55" x="339.5" y="51"/><text fill="#000000" font-family="sans-serif" font-size="14" lengthAdjust="spacingAndGlyphs" textLength="41" x="346.5" y="70.9951">grade</text><rect fill="#FEFECE" filter="url(#f1egre47jahib3)" height="30.2969" style="stroke: #A80036; stroke-width: 1.5;" width="55" x="339.5" y="282.0938"/><text fill="#000000" font-family="sans-serif" font-size="14" lengthAdjust="spacingAndGlyphs" textLength="41" x="346.5" y="302.0889">grade</text><polygon fill="#A80036" points="110.5,113.4297,120.5,117.4297,110.5,121.4297,114.5,117.4297" style="stroke: #A80036; stroke-width: 1.0;"/><line style="stroke: #A80036; stroke-width: 1.0;" x1="30.5" x2="116.5" y1="117.4297" y2="117.4297"/><text fill="#000000" font-family="sans-serif" font-size="13" lengthAdjust="spacingAndGlyphs" textLength="68" x="37.5" y="112.3638">get course</text><polygon fill="#A80036" points="192,142.5625,202,146.5625,192,150.5625,196,146.5625" style="stroke: #A80036; stroke-width: 1.0;"/><line style="stroke: #A80036; stroke-width: 1.0;" x1="30.5" x2="198" y1="146.5625" y2="146.5625"/><text fill="#000000" font-family="sans-serif" font-size="13" lengthAdjust="spacingAndGlyphs" textLength="129" x="37.5" y="141.4966">readGrades(person)</text><path d="M161.5,161.5625 L239.5,161.5625 L239.5,168.5625 L229.5,178.5625 L161.5,178.5625 L161.5,161.5625 " fill="#EEEEEE" style="stroke: #000000; stroke-width: 1.0;"/><rect fill="none" height="75.3984" style="stroke: #000000; stroke-width: 2.0;" width="247" x="161.5" y="161.5625"/><text fill="#000000" font-family="sans-serif" font-size="13" font-weight="bold" lengthAdjust="spacingAndGlyphs" textLength="33" x="176.5" y="174.6294">loop</text><polygon fill="#A80036" points="278,195.8281,288,199.8281,278,203.8281,282,199.8281" style="stroke: #A80036; stroke-width: 1.0;"/><line style="stroke: #A80036; stroke-width: 1.0;" x1="204" x2="284" y1="199.8281" y2="199.8281"/><text fill="#000000" font-family="sans-serif" font-size="13" lengthAdjust="spacingAndGlyphs" textLength="62" x="211" y="194.7622">get grade</text><polygon fill="#A80036" points="357,224.9609,367,228.9609,357,232.9609,361,228.9609" style="stroke: #A80036; stroke-width: 1.0;"/><line style="stroke: #A80036; stroke-width: 1.0;" x1="204" x2="363" y1="228.9609" y2="228.9609"/><text fill="#000000" font-family="sans-serif" font-size="13" lengthAdjust="spacingAndGlyphs" textLength="141" x="211" y="223.895">get person max value</text><polygon fill="#A80036" points="41.5,261.0938,31.5,265.0938,41.5,269.0938,37.5,265.0938" style="stroke: #A80036; stroke-width: 1.0;"/><line style="stroke: #A80036; stroke-width: 1.0;" x1="35.5" x2="203" y1="265.0938" y2="265.0938"/><text fill="#000000" font-family="sans-serif" font-size="13" lengthAdjust="spacingAndGlyphs" textLength="133" x="47.5" y="260.0278">person to value map</text><!--MD5=[770d2b9dc7274141f663163cfec801e7]
@startuml
actor Tutor
collections Courses

Tutor -> Courses : get course
Tutor -> course : readGrades(person)
loop 
    course -> task : get grade
    course -> grade : get person max value
end
course -> Tutor : person to value map
@enduml

PlantUML version 1.2020.17beta5(Unknown compile time)
(GPL source distribution)
Java Runtime: Java(TM) SE Runtime Environment
JVM: Java HotSpot(TM) 64-Bit Server VM
Default Encoding: UTF-8
Language: en
Country: US
--></g></svg>