<?xml version="1.0" encoding="UTF-8" standalone="no"?><svg xmlns="http://www.w3.org/2000/svg" xmlns:xlink="http://www.w3.org/1999/xlink" contentScriptType="application/ecmascript" contentStyleType="text/css" height="310px" preserveAspectRatio="none" style="width:464px;height:310px;" version="1.1" viewBox="0 0 464 310" width="464px" zoomAndPan="magnify"><defs><filter height="300%" id="fejbzf0ekvvzu" width="300%" x="-1" y="-1"><feGaussianBlur result="blurOut" stdDeviation="2.0"/><feColorMatrix in="blurOut" result="blurOut2" type="matrix" values="0 0 0 0 0 0 0 0 0 0 0 0 0 0 0 0 0 0 .4 0"/><feOffset dx="4.0" dy="4.0" in="blurOut2" result="blurOut3"/><feBlend in="SourceGraphic" in2="blurOut3" mode="normal"/></filter></defs><g><rect fill="#FFFFFF" filter="url(#fejbzf0ekvvzu)" height="29.1328" style="stroke: #A80036; stroke-width: 1.0;" width="10" x="355.5" y="175.6953"/><line style="stroke: #A80036; stroke-width: 1.0; stroke-dasharray: 5.0,5.0;" x1="30" x2="30" y1="86.2969" y2="222.8281"/><line style="stroke: #A80036; stroke-width: 1.0; stroke-dasharray: 5.0,5.0;" x1="122.5" x2="122.5" y1="86.2969" y2="222.8281"/><line style="stroke: #A80036; stroke-width: 1.0; stroke-dasharray: 5.0,5.0;" x1="247" x2="247" y1="86.2969" y2="222.8281"/><line style="stroke: #A80036; stroke-width: 1.0; stroke-dasharray: 5.0,5.0;" x1="360" x2="360" y1="86.2969" y2="222.8281"/><line style="stroke: #A80036; stroke-width: 1.0; stroke-dasharray: 5.0,5.0;" x1="424" x2="424" y1="86.2969" y2="222.8281"/><text fill="#000000" font-family="sans-serif" font-size="14" lengthAdjust="spacingAndGlyphs" textLength="39" x="8" y="82.9951">Tutor</text><ellipse cx="30.5" cy="13" fill="#FEFECE" filter="url(#fejbzf0ekvvzu)" rx="8" ry="8" style="stroke: #A80036; stroke-width: 2.0;"/><path d="M30.5,21 L30.5,48 M17.5,29 L43.5,29 M30.5,48 L17.5,63 M30.5,48 L43.5,63 " fill="none" filter="url(#fejbzf0ekvvzu)" style="stroke: #A80036; stroke-width: 2.0;"/><text fill="#000000" font-family="sans-serif" font-size="14" lengthAdjust="spacingAndGlyphs" textLength="39" x="8" y="234.8232">Tutor</text><ellipse cx="30.5" cy="248.125" fill="#FEFECE" filter="url(#fejbzf0ekvvzu)" rx="8" ry="8" style="stroke: #A80036; stroke-width: 2.0;"/><path d="M30.5,256.125 L30.5,283.125 M17.5,264.125 L43.5,264.125 M30.5,283.125 L17.5,298.125 M30.5,283.125 L43.5,298.125 " fill="none" filter="url(#fejbzf0ekvvzu)" style="stroke: #A80036; stroke-width: 2.0;"/><rect fill="#FEFECE" filter="url(#fejbzf0ekvvzu)" height="30.2969" style="stroke: #A80036; stroke-width: 1.5;" width="70" x="87.5" y="47"/><rect fill="#FEFECE" filter="url(#fejbzf0ekvvzu)" height="30.2969" style="stroke: #A80036; stroke-width: 1.5;" width="70" x="83.5" y="51"/><text fill="#000000" font-family="sans-serif" font-size="14" lengthAdjust="spacingAndGlyphs" textLength="56" x="90.5" y="70.9951">Courses</text><rect fill="#FEFECE" filter="url(#fejbzf0ekvvzu)" height="30.2969" style="stroke: #A80036; stroke-width: 1.5;" width="70" x="87.5" y="221.8281"/><rect fill="#FEFECE" filter="url(#fejbzf0ekvvzu)" height="30.2969" style="stroke: #A80036; stroke-width: 1.5;" width="70" x="83.5" y="225.8281"/><text fill="#000000" font-family="sans-serif" font-size="14" lengthAdjust="spacingAndGlyphs" textLength="56" x="90.5" y="245.8232">Courses</text><rect fill="#FEFECE" filter="url(#fejbzf0ekvvzu)" height="30.2969" style="stroke: #A80036; stroke-width: 1.5;" width="61" x="215" y="51"/><text fill="#000000" font-family="sans-serif" font-size="14" lengthAdjust="spacingAndGlyphs" textLength="47" x="222" y="70.9951">course</text><rect fill="#FEFECE" filter="url(#fejbzf0ekvvzu)" height="30.2969" style="stroke: #A80036; stroke-width: 1.5;" width="61" x="215" y="221.8281"/><text fill="#000000" font-family="sans-serif" font-size="14" lengthAdjust="spacingAndGlyphs" textLength="47" x="222" y="241.8232">course</text><rect fill="#FEFECE" filter="url(#fejbzf0ekvvzu)" height="30.2969" style="stroke: #A80036; stroke-width: 1.5;" width="55" x="331" y="51"/><text fill="#000000" font-family="sans-serif" font-size="14" lengthAdjust="spacingAndGlyphs" textLength="41" x="338" y="70.9951">grade</text><rect fill="#FEFECE" filter="url(#fejbzf0ekvvzu)" height="30.2969" style="stroke: #A80036; stroke-width: 1.5;" width="55" x="331" y="221.8281"/><text fill="#000000" font-family="sans-serif" font-size="14" lengthAdjust="spacingAndGlyphs" textLength="41" x="338" y="241.8232">grade</text><rect fill="#FEFECE" filter="url(#fejbzf0ekvvzu)" height="30.2969" style="stroke: #A80036; stroke-width: 1.5;" width="45" x="400" y="51"/><text fill="#000000" font-family="sans-serif" font-size="14" lengthAdjust="spacingAndGlyphs" textLength="31" x="407" y="70.9951">task</text><rect fill="#FEFECE" filter="url(#fejbzf0ekvvzu)" height="30.2969" style="stroke: #A80036; stroke-width: 1.5;" width="45" x="400" y="221.8281"/><text fill="#000000" font-family="sans-serif" font-size="14" lengthAdjust="spacingAndGlyphs" textLength="31" x="407" y="241.8232">task</text><rect fill="#FFFFFF" filter="url(#fejbzf0ekvvzu)" height="29.1328" style="stroke: #A80036; stroke-width: 1.0;" width="10" x="355.5" y="175.6953"/><polygon fill="#A80036" points="110.5,113.4297,120.5,117.4297,110.5,121.4297,114.5,117.4297" style="stroke: #A80036; stroke-width: 1.0;"/><line style="stroke: #A80036; stroke-width: 1.0;" x1="30.5" x2="116.5" y1="117.4297" y2="117.4297"/><text fill="#000000" font-family="sans-serif" font-size="13" lengthAdjust="spacingAndGlyphs" textLength="68" x="37.5" y="112.3638">get course</text><polygon fill="#A80036" points="235.5,142.5625,245.5,146.5625,235.5,150.5625,239.5,146.5625" style="stroke: #A80036; stroke-width: 1.0;"/><line style="stroke: #A80036; stroke-width: 1.0;" x1="30.5" x2="241.5" y1="146.5625" y2="146.5625"/><text fill="#000000" font-family="sans-serif" font-size="13" lengthAdjust="spacingAndGlyphs" textLength="193" x="37.5" y="141.4966">setGrade(task, person, grade)</text><polygon fill="#A80036" points="343.5,171.6953,353.5,175.6953,343.5,179.6953,347.5,175.6953" style="stroke: #A80036; stroke-width: 1.0;"/><line style="stroke: #A80036; stroke-width: 1.0;" x1="247.5" x2="349.5" y1="175.6953" y2="175.6953"/><text fill="#000000" font-family="sans-serif" font-size="13" lengthAdjust="spacingAndGlyphs" textLength="89" x="254.5" y="170.6294">&lt;&lt; create &gt;&gt;</text><polygon fill="#A80036" points="412.5,200.8281,422.5,204.8281,412.5,208.8281,416.5,204.8281" style="stroke: #A80036; stroke-width: 1.0;"/><line style="stroke: #A80036; stroke-width: 1.0;" x1="247.5" x2="418.5" y1="204.8281" y2="204.8281"/><text fill="#000000" font-family="sans-serif" font-size="13" lengthAdjust="spacingAndGlyphs" textLength="59" x="254.5" y="199.7622">setGrade</text><!--MD5=[72edd1cbaf2ed2b755ba34e7a3032c01]
@startuml
actor Tutor
collections Courses

Tutor -> Courses : get course
Tutor -> course : setGrade(task, person, grade)
course -> grade : << create >> 
activate grade
course -> task : setGrade
deactivate grade
@enduml

PlantUML version 1.2020.17beta5(Unknown compile time)
(GPL source distribution)
Java Runtime: Java(TM) SE Runtime Environment
JVM: Java HotSpot(TM) 64-Bit Server VM
Default Encoding: UTF-8
Language: en
Country: US
--></g></svg>