<?xml version="1.0" encoding="UTF-8" standalone="no"?><svg xmlns="http://www.w3.org/2000/svg" xmlns:xlink="http://www.w3.org/1999/xlink" contentScriptType="application/ecmascript" contentStyleType="text/css" height="265px" preserveAspectRatio="none" style="width:606px;height:265px;" version="1.1" viewBox="0 0 606 265" width="606px" zoomAndPan="magnify"><defs><filter height="300%" id="f1qa78vjvadt4o" width="300%" x="-1" y="-1"><feGaussianBlur result="blurOut" stdDeviation="2.0"/><feColorMatrix in="blurOut" result="blurOut2" type="matrix" values="0 0 0 0 0 0 0 0 0 0 0 0 0 0 0 0 0 0 .4 0"/><feOffset dx="4.0" dy="4.0" in="blurOut2" result="blurOut3"/><feBlend in="SourceGraphic" in2="blurOut3" mode="normal"/></filter></defs><g><!--MD5=[4066b0363c5a91ff3b6e03e0428953a9]
class Course--><rect codeLine="4" fill="#FEFECE" filter="url(#f1qa78vjvadt4o)" height="39.9688" id="Course" style="stroke: #A80036; stroke-width: 1.5;" width="170" x="212" y="7"/><text fill="#000000" font-family="sans-serif" font-size="12" lengthAdjust="spacingAndGlyphs" textLength="43" x="275.5" y="23.1387">Course</text><line style="stroke: #A80036; stroke-width: 1.5;" x1="213" x2="381" y1="30.9688" y2="30.9688"/><line style="stroke: #A80036; stroke-width: 1.5;" x1="213" x2="381" y1="38.9688" y2="38.9688"/><!--MD5=[09ce52be0ee7de43c61b6e2d59bf108b]
class Person--><rect codeLine="5" fill="#FEFECE" filter="url(#f1qa78vjvadt4o)" height="39.9688" id="Person" style="stroke: #A80036; stroke-width: 1.5;" width="170" x="7" y="7"/><text fill="#000000" font-family="sans-serif" font-size="12" lengthAdjust="spacingAndGlyphs" textLength="41" x="71.5" y="23.1387">Person</text><line style="stroke: #A80036; stroke-width: 1.5;" x1="8" x2="176" y1="30.9688" y2="30.9688"/><line style="stroke: #A80036; stroke-width: 1.5;" x1="8" x2="176" y1="38.9688" y2="38.9688"/><!--MD5=[a7e7e9fd45c705ab6e23144cf5eeeabf]
class Tutor--><rect codeLine="6" fill="#FEFECE" filter="url(#f1qa78vjvadt4o)" height="39.9688" id="Tutor" style="stroke: #A80036; stroke-width: 1.5;" width="170" x="212" y="107"/><text fill="#000000" font-family="sans-serif" font-size="12" lengthAdjust="spacingAndGlyphs" textLength="31" x="281.5" y="123.1387">Tutor</text><line style="stroke: #A80036; stroke-width: 1.5;" x1="213" x2="381" y1="130.9688" y2="130.9688"/><line style="stroke: #A80036; stroke-width: 1.5;" x1="213" x2="381" y1="138.9688" y2="138.9688"/><!--MD5=[d6181cb537bdc20c0a3007a98a56832d]
class Student--><rect codeLine="7" fill="#FEFECE" filter="url(#f1qa78vjvadt4o)" height="39.9688" id="Student" style="stroke: #A80036; stroke-width: 1.5;" width="170" x="7" y="107"/><text fill="#000000" font-family="sans-serif" font-size="12" lengthAdjust="spacingAndGlyphs" textLength="46" x="69" y="123.1387">Student</text><line style="stroke: #A80036; stroke-width: 1.5;" x1="8" x2="176" y1="130.9688" y2="130.9688"/><line style="stroke: #A80036; stroke-width: 1.5;" x1="8" x2="176" y1="138.9688" y2="138.9688"/><!--MD5=[4296a1ab0576a383a1a509d52c22ebf0]
class Type--><rect codeLine="8" fill="#FEFECE" filter="url(#f1qa78vjvadt4o)" height="39.9688" id="Type" style="stroke: #A80036; stroke-width: 1.5;" width="170" x="417" y="207"/><text fill="#000000" font-family="sans-serif" font-size="12" lengthAdjust="spacingAndGlyphs" textLength="30" x="487" y="223.1387">Type</text><line style="stroke: #A80036; stroke-width: 1.5;" x1="418" x2="586" y1="230.9688" y2="230.9688"/><line style="stroke: #A80036; stroke-width: 1.5;" x1="418" x2="586" y1="238.9688" y2="238.9688"/><!--MD5=[b34797a66dc35cbf1d65f7e3ca75530e]
class Task--><rect codeLine="9" fill="#FEFECE" filter="url(#f1qa78vjvadt4o)" height="39.9688" id="Task" style="stroke: #A80036; stroke-width: 1.5;" width="170" x="417" y="107"/><text fill="#000000" font-family="sans-serif" font-size="12" lengthAdjust="spacingAndGlyphs" textLength="28" x="488" y="123.1387">Task</text><line style="stroke: #A80036; stroke-width: 1.5;" x1="418" x2="586" y1="130.9688" y2="130.9688"/><line style="stroke: #A80036; stroke-width: 1.5;" x1="418" x2="586" y1="138.9688" y2="138.9688"/><!--MD5=[64e7a81d370390ac66d73872e4f36773]
class Grade--><rect codeLine="10" fill="#FEFECE" filter="url(#f1qa78vjvadt4o)" height="39.9688" id="Grade" style="stroke: #A80036; stroke-width: 1.5;" width="170" x="109" y="207"/><text fill="#000000" font-family="sans-serif" font-size="12" lengthAdjust="spacingAndGlyphs" textLength="37" x="175.5" y="223.1387">Grade</text><line style="stroke: #A80036; stroke-width: 1.5;" x1="110" x2="278" y1="230.9688" y2="230.9688"/><line style="stroke: #A80036; stroke-width: 1.5;" x1="110" x2="278" y1="238.9688" y2="238.9688"/><!--MD5=[e540b11ee8941bb7609e65f955ea80ae]
reverse link Person to Tutor--><path d="M150.519,55.975 C184.637,72.285 226.778,92.43 257.088,106.92 " fill="none" id="Person-backto-Tutor" style="stroke: #A80036; stroke-width: 1.0;"/><polygon fill="none" points="147.038,62.07,132.013,47.128,153.076,49.439,147.038,62.07" style="stroke: #A80036; stroke-width: 1.0;"/><!--MD5=[59fe9c8026b8fdee425aa7f650c1a023]
reverse link Person to Student--><path d="M92,67.692 C92,81.134 92,95.546 92,106.679 " fill="none" id="Person-backto-Student" style="stroke: #A80036; stroke-width: 1.0;"/><polygon fill="none" points="85.0001,67.362,92,47.362,99.0001,67.362,85.0001,67.362" style="stroke: #A80036; stroke-width: 1.0;"/><!--MD5=[f73e9509b96d9da485e0c71d1f0dd7d5]
reverse link Course to Tutor--><path codeLine="12" d="M297,52.386 C297,69.155 297,91.12 297,106.679 " fill="none" id="Course-backto-Tutor" style="stroke: #A80036; stroke-width: 1.0;"/><polygon fill="#A80036" points="297,47.362,293,56.362,297,52.362,301,56.362,297,47.362" style="stroke: #A80036; stroke-width: 1.0;"/><text fill="#000000" font-family="sans-serif" font-size="13" lengthAdjust="spacingAndGlyphs" textLength="7" x="289.0594" y="66.9389">*</text><text fill="#000000" font-family="sans-serif" font-size="13" lengthAdjust="spacingAndGlyphs" textLength="7" x="289.0156" y="95.9443">*</text><!--MD5=[3e52397d6826e922ca4db691d25c833b]
reverse link Course to Student--><path codeLine="13" d="M252.241,49.397 C216.354,66.553 166.451,90.409 131.912,106.92 " fill="none" id="Course-backto-Student" style="stroke: #A80036; stroke-width: 1.0;"/><polygon fill="#A80036" points="256.987,47.128,247.142,47.4029,252.4764,49.2854,250.5939,54.6199,256.987,47.128" style="stroke: #A80036; stroke-width: 1.0;"/><text fill="#000000" font-family="sans-serif" font-size="13" lengthAdjust="spacingAndGlyphs" textLength="7" x="237.749" y="66.9883">*</text><text fill="#000000" font-family="sans-serif" font-size="13" lengthAdjust="spacingAndGlyphs" textLength="7" x="135.608" y="95.9094">*</text><!--MD5=[e4b87e2a340765cc6a380a8a9f6a27c0]
reverse link Course to Task--><path codeLine="14" d="M341.759,49.397 C377.646,66.553 427.549,90.409 462.088,106.92 " fill="none" id="Course-backto-Task" style="stroke: #A80036; stroke-width: 1.0;"/><polygon fill="#A80036" points="337.013,47.128,343.4061,54.6199,341.5236,49.2854,346.858,47.4029,337.013,47.128" style="stroke: #A80036; stroke-width: 1.0;"/><text fill="#000000" font-family="sans-serif" font-size="13" lengthAdjust="spacingAndGlyphs" textLength="8" x="339.1417" y="66.9883">1</text><text fill="#000000" font-family="sans-serif" font-size="13" lengthAdjust="spacingAndGlyphs" textLength="7" x="442.3357" y="95.9094">*</text><!--MD5=[34a48d26fcbec9ff6f33dabc81ef7ecc]
reverse link Student to Grade--><path codeLine="15" d="M116.038,151.0958 C133.648,168.0149 157.277,190.7172 173.89,206.6786 " fill="none" id="Student-backto-Grade" style="stroke: #A80036; stroke-width: 1.0;"/><polygon fill="#A80036" points="112.152,147.3616,115.8703,156.4816,115.7574,150.8259,121.4131,150.7129,112.152,147.3616" style="stroke: #A80036; stroke-width: 1.0;"/><text fill="#000000" font-family="sans-serif" font-size="13" lengthAdjust="spacingAndGlyphs" textLength="8" x="108.4927" y="166.9383">1</text><text fill="#000000" font-family="sans-serif" font-size="13" lengthAdjust="spacingAndGlyphs" textLength="7" x="160.2497" y="195.9438">*</text><!--MD5=[36373ebd60ad9218e9e46167dab0ac4f]
reverse link Task to Type--><path codeLine="16" d="M502,152.3862 C502,169.1553 502,191.1196 502,206.6786 " fill="none" id="Task-backto-Type" style="stroke: #A80036; stroke-width: 1.0;"/><polygon fill="#A80036" points="502,147.3616,498,156.3616,502,152.3616,506,156.3616,502,147.3616" style="stroke: #A80036; stroke-width: 1.0;"/><text fill="#000000" font-family="sans-serif" font-size="13" lengthAdjust="spacingAndGlyphs" textLength="7" x="494.0594" y="166.9383">*</text><text fill="#000000" font-family="sans-serif" font-size="13" lengthAdjust="spacingAndGlyphs" textLength="8" x="492.875" y="195.9438">1</text><!--MD5=[a4ffda69ddecb5b905f00662e83cd7d9]
reverse link Task to Grade--><path codeLine="17" d="M437.411,148.551 C383.281,165.7743 306.603,190.1719 253.847,206.9578 " fill="none" id="Task-backto-Grade" style="stroke: #A80036; stroke-width: 1.0;"/><polygon fill="#A80036" points="442.249,147.0116,432.4599,145.9281,437.4843,148.5273,434.8851,153.5517,442.249,147.0116" style="stroke: #A80036; stroke-width: 1.0;"/><text fill="#000000" font-family="sans-serif" font-size="13" lengthAdjust="spacingAndGlyphs" textLength="8" x="415.5221" y="167.1841">1</text><text fill="#000000" font-family="sans-serif" font-size="13" lengthAdjust="spacingAndGlyphs" textLength="7" x="263.3989" y="195.9583">*</text><!--MD5=[4c8a4765d9a14a0255a71b50390e23a0]
@startuml
hide circle
    skinparam minClassWidth 170

    class  Course {}
    class Person{}
    class Tutor extends Person {}
    class Student extends Person {}
    class Type {}
    class Task {}
    class Grade {}

    Course "*" <- - "*" Tutor
    Course "*" <- - "*" Student
    Course "1" <- - "*" Task
    Student "1" <- - "*" Grade
    Task "*" <- - "1" Type
    Task "1" <- - "*" Grade
@enduml

PlantUML version 1.2020.17beta5(Unknown compile time)
(GPL source distribution)
Java Runtime: Java(TM) SE Runtime Environment
JVM: Java HotSpot(TM) 64-Bit Server VM
Default Encoding: UTF-8
Language: en
Country: US
--></g></svg>