<?xml version="1.0" encoding="UTF-8" standalone="no"?><svg xmlns="http://www.w3.org/2000/svg" xmlns:xlink="http://www.w3.org/1999/xlink" contentScriptType="application/ecmascript" contentStyleType="text/css" height="384px" preserveAspectRatio="none" style="width:403px;height:384px;" version="1.1" viewBox="0 0 403 384" width="403px" zoomAndPan="magnify"><defs><filter height="300%" id="f3hyoifrvk84z" width="300%" x="-1" y="-1"><feGaussianBlur result="blurOut" stdDeviation="2.0"/><feColorMatrix in="blurOut" result="blurOut2" type="matrix" values="0 0 0 0 0 0 0 0 0 0 0 0 0 0 0 0 0 0 .4 0"/><feOffset dx="4.0" dy="4.0" in="blurOut2" result="blurOut3"/><feBlend in="SourceGraphic" in2="blurOut3" mode="normal"/></filter></defs><g><rect fill="#FFFFFF" filter="url(#f3hyoifrvk84z)" height="193" style="stroke: #000000; stroke-width: 1.5;" width="169" x="217" y="7"/><ellipse cx="301.3259" cy="38.0236" fill="#FEFECE" filter="url(#f3hyoifrvk84z)" rx="55.3259" ry="14.5236" style="stroke: #A80036; stroke-width: 1.5;"/><text fill="#000000" font-family="sans-serif" font-size="14" lengthAdjust="spacingAndGlyphs" textLength="74" x="264.3259" y="42.6721">"Set task"</text><ellipse cx="301.5143" cy="102.2029" fill="#FEFECE" filter="url(#f3hyoifrvk84z)" rx="61.5143" ry="14.7029" style="stroke: #A80036; stroke-width: 1.5;"/><text fill="#000000" font-family="sans-serif" font-size="14" lengthAdjust="spacingAndGlyphs" textLength="84" x="259.5143" y="106.8513">"Set grade"</text><ellipse cx="301.2758" cy="168.0552" fill="#FEFECE" filter="url(#f3hyoifrvk84z)" rx="68.2758" ry="16.0552" style="stroke: #A80036; stroke-width: 1.5;"/><text fill="#000000" font-family="sans-serif" font-size="14" lengthAdjust="spacingAndGlyphs" textLength="102" x="250.2758" y="172.7036">"Read grades"</text><!--MD5=[aa9590aded7922f1f97871b066948052]
entity Person--><ellipse cx="30.5" cy="187" fill="#FEFECE" filter="url(#f3hyoifrvk84z)" rx="8" ry="8" style="stroke: #A80036; stroke-width: 1.5;"/><path d="M30.5,195 L30.5,222 M17.5,203 L43.5,203 M30.5,222 L17.5,237 M30.5,222 L43.5,237 " fill="none" filter="url(#f3hyoifrvk84z)" style="stroke: #A80036; stroke-width: 1.5;"/><text fill="#000000" font-family="sans-serif" font-size="14" lengthAdjust="spacingAndGlyphs" textLength="49" x="6" y="255.4951">Person</text><!--MD5=[e87cffe958d084b05e09cd25189824f6]
entity Tutor--><ellipse cx="144" cy="71" fill="#FEFECE" filter="url(#f3hyoifrvk84z)" rx="8" ry="8" style="stroke: #A80036; stroke-width: 1.5;"/><path d="M144,79 L144,106 M131,87 L157,87 M144,106 L131,121 M144,106 L157,121 " fill="none" filter="url(#f3hyoifrvk84z)" style="stroke: #A80036; stroke-width: 1.5;"/><text fill="#000000" font-family="sans-serif" font-size="14" lengthAdjust="spacingAndGlyphs" textLength="39" x="124.5" y="139.4951">Tutor</text><!--MD5=[494c489cc4328319247ec2e1625e02a3]
entity Student--><ellipse cx="144" cy="187" fill="#FEFECE" filter="url(#f3hyoifrvk84z)" rx="8" ry="8" style="stroke: #A80036; stroke-width: 1.5;"/><path d="M144,195 L144,222 M131,203 L157,203 M144,222 L131,237 M144,222 L157,237 " fill="none" filter="url(#f3hyoifrvk84z)" style="stroke: #A80036; stroke-width: 1.5;"/><text fill="#000000" font-family="sans-serif" font-size="14" lengthAdjust="spacingAndGlyphs" textLength="58" x="115" y="255.4951">Student</text><!--MD5=[97ab183161fd5d1db7fba7485cf76add]
entity Admin--><ellipse cx="144" cy="303" fill="#FEFECE" filter="url(#f3hyoifrvk84z)" rx="8" ry="8" style="stroke: #A80036; stroke-width: 1.5;"/><path d="M144,311 L144,338 M131,319 L157,319 M144,338 L131,353 M144,338 L157,353 " fill="none" filter="url(#f3hyoifrvk84z)" style="stroke: #A80036; stroke-width: 1.5;"/><text fill="#000000" font-family="sans-serif" font-size="14" lengthAdjust="spacingAndGlyphs" textLength="46" x="121" y="371.4951">Admin</text><!--MD5=[e540b11ee8941bb7609e65f955ea80ae]
reverse link Person to Tutor--><path d="M69.1734,178.806 C87.687,159.545 109.183,137.182 124.188,121.571 " fill="none" id="Person-backto-Tutor" style="stroke: #A80036; stroke-width: 1.0;"/><polygon fill="none" points="74.0527,183.831,55.1463,193.399,63.9593,174.129,74.0527,183.831" style="stroke: #A80036; stroke-width: 1.0;"/><!--MD5=[59fe9c8026b8fdee425aa7f650c1a023]
reverse link Person to Student--><path d="M75.3233,218 C88.5483,218 102.7126,218 114.648,218 " fill="none" id="Person-backto-Student" style="stroke: #A80036; stroke-width: 1.0;"/><polygon fill="none" points="75.1463,225,55.1463,218,75.1462,211,75.1463,225" style="stroke: #A80036; stroke-width: 1.0;"/><!--MD5=[e4eb34366b549f316bd55ff4416cda69]
reverse link Person to Admin--><path d="M69.1222,257.141 C86.3361,275.0493 106.137,295.6498 120.905,311.0128 " fill="none" id="Person-backto-Admin" style="stroke: #A80036; stroke-width: 1.0;"/><polygon fill="none" points="63.9593,261.871,55.1463,242.601,74.0527,252.169,63.9593,261.871" style="stroke: #A80036; stroke-width: 1.0;"/><!--MD5=[7ed4bb01578bc617d33bc944089f9fe4]
link Tutor to "Set task"--><path d="M163.747,91.835 C176.349,85.2 193.439,76.58 209,70 C227.29,62.266 248.159,54.863 265.344,49.129 " fill="none" id="Tutor-&quot;Set task&quot;" style="stroke: #A80036; stroke-width: 1.0;"/><!--MD5=[810d27a8bcd5642dea77ed99836d8f5f]
link Tutor to "Set grade"--><path d="M163.757,102 C182.578,102 212.588,102 239.705,102 " fill="none" id="Tutor-&quot;Set grade&quot;" style="stroke: #A80036; stroke-width: 1.0;"/><!--MD5=[55215e27e2a4c1f0a694a174bd8e365c]
link Tutor to "Read grades"--><path d="M163.511,111.921 C176.158,118.533 193.39,127.221 209,134 C226.254,141.493 245.748,148.88 262.295,154.845 " fill="none" id="Tutor-&quot;Read grades&quot;" style="stroke: #A80036; stroke-width: 1.0;"/><!--MD5=[f9876dda28b26f20ea0dc732980173ba]
@startuml
left to right direction

    Person <|- - Tutor   
    Person <|- - Student
    Person <|- - Admin

    rectangle {
        Tutor - - ("Set task")
        Tutor - - ("Set grade")
        Tutor - - ("Read grades")
    } 
    /'
        Student - - ("Read grades")
        Admin - - ("Set Person")
        Admin - - ("Set Course")
        Admin - - ("Set Course Person")
    }
'/
@enduml

@startuml
left to right direction

    Person <|- - Tutor   
    Person <|- - Student
    Person <|- - Admin

    rectangle {
        Tutor - - ("Set task")
        Tutor - - ("Set grade")
        Tutor - - ("Read grades")
    } 
@enduml

PlantUML version 1.2020.17beta5(Unknown compile time)
(GPL source distribution)
Java Runtime: Java(TM) SE Runtime Environment
JVM: Java HotSpot(TM) 64-Bit Server VM
Default Encoding: UTF-8
Language: en
Country: US
--></g></svg>