<?xml version="1.0" encoding="UTF-8" standalone="no"?><svg xmlns="http://www.w3.org/2000/svg" xmlns:xlink="http://www.w3.org/1999/xlink" contentScriptType="application/ecmascript" contentStyleType="text/css" height="424px" preserveAspectRatio="none" style="width:438px;height:424px;" version="1.1" viewBox="0 0 438 424" width="438px" zoomAndPan="magnify"><defs><filter height="300%" id="fama7cxle27l" width="300%" x="-1" y="-1"><feGaussianBlur result="blurOut" stdDeviation="2.0"/><feColorMatrix in="blurOut" result="blurOut2" type="matrix" values="0 0 0 0 0 0 0 0 0 0 0 0 0 0 0 0 0 0 .4 0"/><feOffset dx="4.0" dy="4.0" in="blurOut2" result="blurOut3"/><feBlend in="SourceGraphic" in2="blurOut3" mode="normal"/></filter></defs><g><rect fill="#FFFFFF" filter="url(#fama7cxle27l)" height="400" style="stroke: #000000; stroke-width: 1.5;" width="204" x="217" y="7"/><ellipse cx="318.8259" cy="38.0236" fill="#FEFECE" filter="url(#fama7cxle27l)" rx="55.3259" ry="14.5236" style="stroke: #A80036; stroke-width: 1.5;"/><text fill="#000000" font-family="sans-serif" font-size="14" lengthAdjust="spacingAndGlyphs" textLength="74" x="281.8259" y="42.6721">"Set task"</text><ellipse cx="319.0143" cy="102.2029" fill="#FEFECE" filter="url(#fama7cxle27l)" rx="61.5143" ry="14.7029" style="stroke: #A80036; stroke-width: 1.5;"/><text fill="#000000" font-family="sans-serif" font-size="14" lengthAdjust="spacingAndGlyphs" textLength="84" x="277.0143" y="106.8513">"Set grade"</text><ellipse cx="318.7758" cy="168.0552" fill="#FEFECE" filter="url(#fama7cxle27l)" rx="68.2758" ry="16.0552" style="stroke: #A80036; stroke-width: 1.5;"/><text fill="#000000" font-family="sans-serif" font-size="14" lengthAdjust="spacingAndGlyphs" textLength="102" x="267.7758" y="172.7036">"Read grades"</text><ellipse cx="318.9486" cy="234.7897" fill="#FEFECE" filter="url(#fama7cxle27l)" rx="64.4486" ry="15.2897" style="stroke: #A80036; stroke-width: 1.5;"/><text fill="#000000" font-family="sans-serif" font-size="14" lengthAdjust="spacingAndGlyphs" textLength="92" x="272.9486" y="239.4382">"Set Person"</text><ellipse cx="318.9486" cy="300.7897" fill="#FEFECE" filter="url(#fama7cxle27l)" rx="64.4486" ry="15.2897" style="stroke: #A80036; stroke-width: 1.5;"/><text fill="#000000" font-family="sans-serif" font-size="14" lengthAdjust="spacingAndGlyphs" textLength="92" x="272.9486" y="305.4382">"Set Course"</text><ellipse cx="319.1635" cy="371.1327" fill="#FEFECE" filter="url(#fama7cxle27l)" rx="86.1635" ry="19.6327" style="stroke: #A80036; stroke-width: 1.5;"/><text fill="#000000" font-family="sans-serif" font-size="14" lengthAdjust="spacingAndGlyphs" textLength="145" x="246.6635" y="375.7811">"Set Course Person"</text><!--MD5=[aa9590aded7922f1f97871b066948052]
entity Person--><ellipse cx="30.5" cy="154" fill="#FEFECE" filter="url(#fama7cxle27l)" rx="8" ry="8" style="stroke: #A80036; stroke-width: 1.5;"/><path d="M30.5,162 L30.5,189 M17.5,170 L43.5,170 M30.5,189 L17.5,204 M30.5,189 L43.5,204 " fill="none" filter="url(#fama7cxle27l)" style="stroke: #A80036; stroke-width: 1.5;"/><text fill="#000000" font-family="sans-serif" font-size="14" lengthAdjust="spacingAndGlyphs" textLength="49" x="6" y="222.4951">Person</text><!--MD5=[e87cffe958d084b05e09cd25189824f6]
entity Tutor--><ellipse cx="144" cy="38" fill="#FEFECE" filter="url(#fama7cxle27l)" rx="8" ry="8" style="stroke: #A80036; stroke-width: 1.5;"/><path d="M144,46 L144,73 M131,54 L157,54 M144,73 L131,88 M144,73 L157,88 " fill="none" filter="url(#fama7cxle27l)" style="stroke: #A80036; stroke-width: 1.5;"/><text fill="#000000" font-family="sans-serif" font-size="14" lengthAdjust="spacingAndGlyphs" textLength="39" x="124.5" y="106.4951">Tutor</text><!--MD5=[494c489cc4328319247ec2e1625e02a3]
entity Student--><ellipse cx="144" cy="154" fill="#FEFECE" filter="url(#fama7cxle27l)" rx="8" ry="8" style="stroke: #A80036; stroke-width: 1.5;"/><path d="M144,162 L144,189 M131,170 L157,170 M144,189 L131,204 M144,189 L157,204 " fill="none" filter="url(#fama7cxle27l)" style="stroke: #A80036; stroke-width: 1.5;"/><text fill="#000000" font-family="sans-serif" font-size="14" lengthAdjust="spacingAndGlyphs" textLength="58" x="115" y="222.4951">Student</text><!--MD5=[97ab183161fd5d1db7fba7485cf76add]
entity Admin--><ellipse cx="144" cy="270" fill="#FEFECE" filter="url(#fama7cxle27l)" rx="8" ry="8" style="stroke: #A80036; stroke-width: 1.5;"/><path d="M144,278 L144,305 M131,286 L157,286 M144,305 L131,320 M144,305 L157,320 " fill="none" filter="url(#fama7cxle27l)" style="stroke: #A80036; stroke-width: 1.5;"/><text fill="#000000" font-family="sans-serif" font-size="14" lengthAdjust="spacingAndGlyphs" textLength="46" x="121" y="338.4951">Admin</text><!--MD5=[e540b11ee8941bb7609e65f955ea80ae]
reverse link Person to Tutor--><path d="M69.1734,145.806 C87.687,126.545 109.183,104.182 124.188,88.571 " fill="none" id="Person-backto-Tutor" style="stroke: #A80036; stroke-width: 1.0;"/><polygon fill="none" points="74.0527,150.831,55.1463,160.399,63.9593,141.129,74.0527,150.831" style="stroke: #A80036; stroke-width: 1.0;"/><!--MD5=[59fe9c8026b8fdee425aa7f650c1a023]
reverse link Person to Student--><path d="M75.3233,185 C88.5483,185 102.7126,185 114.648,185 " fill="none" id="Person-backto-Student" style="stroke: #A80036; stroke-width: 1.0;"/><polygon fill="none" points="75.1463,192,55.1463,185,75.1462,178,75.1463,192" style="stroke: #A80036; stroke-width: 1.0;"/><!--MD5=[e4eb34366b549f316bd55ff4416cda69]
reverse link Person to Admin--><path d="M69.1222,224.141 C86.3361,242.049 106.137,262.65 120.905,278.013 " fill="none" id="Person-backto-Admin" style="stroke: #A80036; stroke-width: 1.0;"/><polygon fill="none" points="63.9593,228.871,55.1463,209.601,74.0527,219.169,63.9593,228.871" style="stroke: #A80036; stroke-width: 1.0;"/><!--MD5=[7ed4bb01578bc617d33bc944089f9fe4]
link Tutor to "Set task"--><path d="M163.514,65.682 C189.402,61.043 237.239,52.472 272.85,46.09 " fill="none" id="Tutor-&quot;Set task&quot;" style="stroke: #A80036; stroke-width: 1.0;"/><!--MD5=[810d27a8bcd5642dea77ed99836d8f5f]
link Tutor to "Set grade"--><path d="M163.514,72.532 C188.88,77.37 235.316,86.228 270.677,92.973 " fill="none" id="Tutor-&quot;Set grade&quot;" style="stroke: #A80036; stroke-width: 1.0;"/><!--MD5=[55215e27e2a4c1f0a694a174bd8e365c]
link Tutor to "Read grades"--><path d="M163.748,93.264 C175.445,106.939 191.56,123.361 209,134 C226.515,144.685 247.684,152.287 266.69,157.553 " fill="none" id="Tutor-&quot;Read grades&quot;" style="stroke: #A80036; stroke-width: 1.0;"/><!--MD5=[4cb971212828de783cf20cc8136a636a]
link Student to "Read grades"--><path d="M173.18,182.231 C195.393,180.048 227.211,176.922 255.367,174.155 " fill="none" id="Student-&quot;Read grades&quot;" style="stroke: #A80036; stroke-width: 1.0;"/><!--MD5=[0be6a316511d66bd0cc861ec8bf85c6a]
link Admin to "Set Person"--><path d="M167.041,288.371 C179.169,281.746 194.633,273.822 209,268 C230.073,259.46 254.209,251.934 274.404,246.233 " fill="none" id="Admin-&quot;Set Person&quot;" style="stroke: #A80036; stroke-width: 1.0;"/><!--MD5=[e290e649bf24b60731a17abef7ca0bb2]
link Admin to "Set Course"--><path d="M167.263,301 C189.256,301 223.942,301 254.499,301 " fill="none" id="Admin-&quot;Set Course&quot;" style="stroke: #A80036; stroke-width: 1.0;"/><!--MD5=[890f9d918635e67d35079c367c7e5f10]
link Admin to "Set Course Person"--><path d="M167.119,313.44 C179.271,320.008 194.732,327.9398 209,334 C227.578,341.8908 248.463,349.3145 266.943,355.4114 " fill="none" id="Admin-&quot;Set Course Person&quot;" style="stroke: #A80036; stroke-width: 1.0;"/><!--MD5=[15ef49cdbf43c66934fac441c078810c]
@startuml
left to right direction

    Person <|- - Tutor   
    Person <|- - Student
    Person <|- - Admin

    rectangle {
        Tutor - - ("Set task")
        Tutor - - ("Set grade")
        Tutor - - ("Read grades")
        Student - - ("Read grades")
        Admin - - ("Set Person")
        Admin - - ("Set Course")
        Admin - - ("Set Course Person")
    }
@enduml

PlantUML version 1.2020.17beta5(Unknown compile time)
(GPL source distribution)
Java Runtime: Java(TM) SE Runtime Environment
JVM: Java HotSpot(TM) 64-Bit Server VM
Default Encoding: UTF-8
Language: en
Country: US
--></g></svg>