<?xml version="1.0" encoding="UTF-8" standalone="no"?><svg xmlns="http://www.w3.org/2000/svg" xmlns:xlink="http://www.w3.org/1999/xlink" contentScriptType="application/ecmascript" contentStyleType="text/css" height="369px" preserveAspectRatio="none" style="width:694px;height:369px;" version="1.1" viewBox="0 0 694 369" width="694px" zoomAndPan="magnify"><defs><filter height="300%" id="f1rwt581z318u6" width="300%" x="-1" y="-1"><feGaussianBlur result="blurOut" stdDeviation="2.0"/><feColorMatrix in="blurOut" result="blurOut2" type="matrix" values="0 0 0 0 0 0 0 0 0 0 0 0 0 0 0 0 0 0 .4 0"/><feOffset dx="4.0" dy="4.0" in="blurOut2" result="blurOut3"/><feBlend in="SourceGraphic" in2="blurOut3" mode="normal"/></filter></defs><g><rect fill="#FFFFFF" filter="url(#f1rwt581z318u6)" height="258" style="stroke: #000000; stroke-width: 1.5;" width="456" x="221" y="28.426"/><ellipse cx="301.5143" cy="59.6289" fill="#FEFECE" filter="url(#f1rwt581z318u6)" rx="61.5143" ry="14.7029" style="stroke: #A80036; stroke-width: 1.5;"/><text fill="#000000" font-family="sans-serif" font-size="14" lengthAdjust="spacingAndGlyphs" textLength="84" x="259.5143" y="64.2773">"Set grade"</text><ellipse cx="574.7758" cy="195.4812" fill="#FEFECE" filter="url(#f1rwt581z318u6)" rx="68.2758" ry="16.0552" style="stroke: #A80036; stroke-width: 1.5;"/><text fill="#000000" font-family="sans-serif" font-size="14" lengthAdjust="spacingAndGlyphs" textLength="102" x="523.7758" y="200.1296">"Read grades"</text><ellipse cx="301.4486" cy="254.2157" fill="#FEFECE" filter="url(#f1rwt581z318u6)" rx="64.4486" ry="15.2897" style="stroke: #A80036; stroke-width: 1.5;"/><text fill="#000000" font-family="sans-serif" font-size="14" lengthAdjust="spacingAndGlyphs" textLength="92" x="255.4486" y="258.8642">"Set Course"</text><ellipse cx="575.1635" cy="94.5587" fill="#FEFECE" filter="url(#f1rwt581z318u6)" rx="86.1635" ry="19.6327" style="stroke: #A80036; stroke-width: 1.5;"/><text fill="#000000" font-family="sans-serif" font-size="14" lengthAdjust="spacingAndGlyphs" textLength="145" x="502.6635" y="99.2071">"Set Course Person"</text><ellipse cx="301.3259" cy="123.4496" fill="#FEFECE" filter="url(#f1rwt581z318u6)" rx="55.3259" ry="14.5236" style="stroke: #A80036; stroke-width: 1.5;"/><text fill="#000000" font-family="sans-serif" font-size="14" lengthAdjust="spacingAndGlyphs" textLength="74" x="264.3259" y="128.0981">"Set task"</text><ellipse cx="301.4486" cy="188.2157" fill="#FEFECE" filter="url(#f1rwt581z318u6)" rx="64.4486" ry="15.2897" style="stroke: #A80036; stroke-width: 1.5;"/><text fill="#000000" font-family="sans-serif" font-size="14" lengthAdjust="spacingAndGlyphs" textLength="92" x="255.4486" y="192.8642">"Set Person"</text><!--MD5=[aa9590aded7922f1f97871b066948052]
entity Person--><ellipse cx="30.5" cy="169.426" fill="#FEFECE" filter="url(#f1rwt581z318u6)" rx="8" ry="8" style="stroke: #A80036; stroke-width: 1.5;"/><path d="M30.5,177.426 L30.5,204.426 M17.5,185.426 L43.5,185.426 M30.5,204.426 L17.5,219.426 M30.5,204.426 L43.5,219.426 " fill="none" filter="url(#f1rwt581z318u6)" style="stroke: #A80036; stroke-width: 1.5;"/><text fill="#000000" font-family="sans-serif" font-size="14" lengthAdjust="spacingAndGlyphs" textLength="49" x="6" y="237.9211">Person</text><!--MD5=[e87cffe958d084b05e09cd25189824f6]
entity Tutor--><ellipse cx="145" cy="46.426" fill="#FEFECE" filter="url(#f1rwt581z318u6)" rx="8" ry="8" style="stroke: #A80036; stroke-width: 1.5;"/><path d="M145,54.426 L145,81.426 M132,62.426 L158,62.426 M145,81.426 L132,96.426 M145,81.426 L158,96.426 " fill="none" filter="url(#f1rwt581z318u6)" style="stroke: #A80036; stroke-width: 1.5;"/><text fill="#000000" font-family="sans-serif" font-size="14" lengthAdjust="spacingAndGlyphs" textLength="39" x="125.5" y="114.9211">Tutor</text><!--MD5=[494c489cc4328319247ec2e1625e02a3]
entity Student--><ellipse cx="145" cy="287.426" fill="#FEFECE" filter="url(#f1rwt581z318u6)" rx="8" ry="8" style="stroke: #A80036; stroke-width: 1.5;"/><path d="M145,295.426 L145,322.426 M132,303.426 L158,303.426 M145,322.426 L132,337.426 M145,322.426 L158,337.426 " fill="none" filter="url(#f1rwt581z318u6)" style="stroke: #A80036; stroke-width: 1.5;"/><text fill="#000000" font-family="sans-serif" font-size="14" lengthAdjust="spacingAndGlyphs" textLength="58" x="116" y="355.9211">Student</text><!--MD5=[97ab183161fd5d1db7fba7485cf76add]
entity Admin--><ellipse cx="145" cy="169.426" fill="#FEFECE" filter="url(#f1rwt581z318u6)" rx="8" ry="8" style="stroke: #A80036; stroke-width: 1.5;"/><path d="M145,177.426 L145,204.426 M132,185.426 L158,185.426 M145,204.426 L132,219.426 M145,204.426 L158,219.426 " fill="none" filter="url(#f1rwt581z318u6)" style="stroke: #A80036; stroke-width: 1.5;"/><text fill="#000000" font-family="sans-serif" font-size="14" lengthAdjust="spacingAndGlyphs" textLength="46" x="122" y="237.9211">Admin</text><!--MD5=[e540b11ee8941bb7609e65f955ea80ae]
reverse link Person to Tutor--><path d="M68.7743,159.673 C87.7262,138.952 109.933,114.672 125.283,97.89 " fill="none" id="Person-backto-Tutor" style="stroke: #A80036; stroke-width: 1.0;"/><polygon fill="none" points="73.7472,164.608,55.0837,174.641,63.4166,155.159,73.7472,164.608" style="stroke: #A80036; stroke-width: 1.0;"/><!--MD5=[59fe9c8026b8fdee425aa7f650c1a023]
reverse link Person to Student--><path d="M68.8948,239.649 C84.1474,255.647 101.4917,273.8395 115.667,288.708 " fill="none" id="Person-backto-Student" style="stroke: #A80036; stroke-width: 1.0;"/><polygon fill="none" points="63.8181,244.468,55.0837,225.163,73.9509,234.808,63.8181,244.468" style="stroke: #A80036; stroke-width: 1.0;"/><!--MD5=[e4eb34366b549f316bd55ff4416cda69]
reverse link Person to Admin--><path d="M75.1823,200.426 C91.2019,200.426 108.655,200.426 121.976,200.426 " fill="none" id="Person-backto-Admin" style="stroke: #A80036; stroke-width: 1.0;"/><polygon fill="none" points="75.0837,207.426,55.0837,200.426,75.0837,193.426,75.0837,207.426" style="stroke: #A80036; stroke-width: 1.0;"/><!--MD5=[7ed4bb01578bc617d33bc944089f9fe4]
link Tutor to "Set task"--><path d="M164.636,82.975 C189.195,90.287 232.928,103.308 264.144,112.602 " fill="none" id="Tutor-&quot;Set task&quot;" style="stroke: #A80036; stroke-width: 1.0;"/><!--MD5=[7196147e07fab0f0a1419f3b1f6e6a9e]
link Tutor to SG--><path d="M164.636,75.255 C184.701,72.917 217.564,69.088 245.942,65.782 " fill="none" id="Tutor-SG" style="stroke: #A80036; stroke-width: 1.0;"/><!--MD5=[8e0de500af545afd650fd49db7f0699f]
link Student to RG--><path d="M174.299,316.9399 C216.689,314.1573 298.87,306.5998 366,287.426 C433.962,268.0147 508.576,230.769 547.312,210.12 " fill="none" id="Student-RG" style="stroke: #A80036; stroke-width: 1.0;"/><!--MD5=[0be6a316511d66bd0cc861ec8bf85c6a]
link Admin to "Set Person"--><path d="M168.136,198.707 C186.826,197.255 214.498,195.106 239.715,193.147 " fill="none" id="Admin-&quot;Set Person&quot;" style="stroke: #A80036; stroke-width: 1.0;"/><!--MD5=[548d9b2ffd435d0e2b45d84ad29afbde]
link Admin to SC--><path d="M168.136,208.163 C193.168,216.912 234.309,231.291 264.087,241.699 " fill="none" id="Admin-SC" style="stroke: #A80036; stroke-width: 1.0;"/><!--MD5=[a7df4e564ada078f4209bf4e7c15e7ae]
link Tutor to SCP--><path d="M164.57,58.358 C177.05,46.966 194.542,33.554 213,27.426 C277.536,6 298.824,16.874 366,27.426 C425.966,36.846 492.224,60.663 533.486,77.201 " fill="none" id="Tutor-SCP" style="stroke: #A80036; stroke-width: 1.0;"/><!--MD5=[478fffc7702a6366ee512dd382bb72a3]
link SG to RG--><path d="M328.533,72.466 C378.105,97.298 485.98,151.335 540.714,178.752 " fill="none" id="SG-to-RG" style="stroke: #A80036; stroke-width: 1.0;"/><polygon fill="#A80036" points="545.202,181,538.9468,173.3926,540.7316,178.7605,535.3636,180.5452,545.202,181" style="stroke: #A80036; stroke-width: 1.0;"/><text fill="#000000" font-family="sans-serif" font-size="13" lengthAdjust="spacingAndGlyphs" textLength="61" x="397" y="103.4929">«extend»</text><!--MD5=[877e656a52cd03be267d2fdd8767490b]
link SC to SCP--><path d="M330.227,240.541 C341.429,234.796 354.422,227.959 366,221.426 C428.752,186.018 500.059,141.519 540.771,115.692 " fill="none" id="SC-to-SCP" style="stroke: #A80036; stroke-width: 1.0;"/><polygon fill="#A80036" points="545.097,112.945,535.3553,114.3941,540.8765,115.6259,539.6447,121.147,545.097,112.945" style="stroke: #A80036; stroke-width: 1.0;"/><text fill="#000000" font-family="sans-serif" font-size="13" lengthAdjust="spacingAndGlyphs" textLength="61" x="397" y="162.4929">«include»</text><!--MD5=[1aad8ffb03b60231793eb6b5ae8f3710]
@startuml
left to right direction

    Person <|- - Tutor   
    Person <|- - Student
    Person <|- - Admin

    rectangle {
        usecase ("Set grade") as SG
        usecase ("Read grades") as RG
        usecase ("Set Course") as SC
        usecase ("Set Course Person") as SCP
        Tutor - - ("Set task")
        Tutor - - SG        
        Student - - RG
        Admin - - ("Set Person")
        Admin - - SC
        Tutor - - SCP
    }

    SG - -> RG : <<extend>>
    SC - -> SCP : <<include>>
@enduml

PlantUML version 1.2020.17beta5(Unknown compile time)
(GPL source distribution)
Java Runtime: Java(TM) SE Runtime Environment
JVM: Java HotSpot(TM) 64-Bit Server VM
Default Encoding: UTF-8
Language: en
Country: US
--></g></svg>