<?xml version="1.0" encoding="UTF-8" standalone="no"?><svg xmlns="http://www.w3.org/2000/svg" xmlns:xlink="http://www.w3.org/1999/xlink" contentScriptType="application/ecmascript" contentStyleType="text/css" height="215px" preserveAspectRatio="none" style="width:364px;height:215px;" version="1.1" viewBox="0 0 364 215" width="364px" zoomAndPan="magnify"><defs><filter height="300%" id="fw2p91ml8eprd" width="300%" x="-1" y="-1"><feGaussianBlur result="blurOut" stdDeviation="2.0"/><feColorMatrix in="blurOut" result="blurOut2" type="matrix" values="0 0 0 0 0 0 0 0 0 0 0 0 0 0 0 0 0 0 .4 0"/><feOffset dx="4.0" dy="4.0" in="blurOut2" result="blurOut3"/><feBlend in="SourceGraphic" in2="blurOut3" mode="normal"/></filter></defs><g><!--MD5=[1d7ba1c7002d54515419844fbd155368]
class Controller--><rect codeLine="4" fill="#FEFECE" filter="url(#fw2p91ml8eprd)" height="73.6094" id="Controller" style="stroke: #A80036; stroke-width: 1.5;" width="150" x="7" y="7"/><ellipse cx="48.55" cy="23" fill="#ADD1B2" rx="11" ry="11" style="stroke: #A80036; stroke-width: 1.0;"/><path d="M50.8938,18.6719 C49.9563,18.2344 49.3625,18.0938 48.4875,18.0938 C45.8625,18.0938 43.8625,20.1719 43.8625,22.8906 L43.8625,24.0156 C43.8625,26.5938 45.9719,28.4844 48.8625,28.4844 C50.0813,28.4844 51.2375,28.1875 51.9875,27.6406 C52.5656,27.2344 52.8938,26.7813 52.8938,26.3906 C52.8938,25.9375 52.5031,25.5469 52.0344,25.5469 C51.8156,25.5469 51.6125,25.625 51.425,25.8125 C50.9719,26.2969 50.9719,26.2969 50.7844,26.3906 C50.3625,26.6563 49.675,26.7813 48.9094,26.7813 C46.8625,26.7813 45.5656,25.6875 45.5656,23.9844 L45.5656,22.8906 C45.5656,21.1094 46.8156,19.7969 48.55,19.7969 C49.1281,19.7969 49.7375,19.9531 50.2063,20.2031 C50.6906,20.4844 50.8625,20.7031 50.9563,21.1094 C51.0188,21.5156 51.05,21.6406 51.1906,21.7656 C51.3313,21.9063 51.5656,22.0156 51.7844,22.0156 C52.05,22.0156 52.3156,21.875 52.4875,21.6563 C52.5969,21.5 52.6281,21.3125 52.6281,20.8906 L52.6281,19.4688 C52.6281,19.0313 52.6125,18.9063 52.5188,18.75 C52.3625,18.4844 52.0813,18.3438 51.7844,18.3438 C51.4875,18.3438 51.2844,18.4375 51.0656,18.75 L50.8938,18.6719 Z "/><text fill="#000000" font-family="sans-serif" font-size="12" lengthAdjust="spacingAndGlyphs" textLength="59" x="68.45" y="27.1543">Controller</text><line style="stroke: #A80036; stroke-width: 1.5;" x1="8" x2="156" y1="39" y2="39"/><text fill="#000000" font-family="sans-serif" font-size="11" lengthAdjust="spacingAndGlyphs" textLength="83" x="13" y="53.2104">-Int? checkCell</text><line style="stroke: #A80036; stroke-width: 1.5;" x1="8" x2="156" y1="59.8047" y2="59.8047"/><text fill="#000000" font-family="sans-serif" font-size="11" lengthAdjust="spacingAndGlyphs" textLength="77" x="13" y="74.0151">#State step()</text><!--MD5=[60d6b92408f98aed8df94d5c6e04aa63]
class State--><rect codeLine="9" fill="#FEFECE" filter="url(#fw2p91ml8eprd)" height="60.8047" id="State" style="stroke: #A80036; stroke-width: 1.5;" width="158" x="192" y="13.5"/><ellipse cx="250.75" cy="29.5" fill="#A9DCDF" rx="11" ry="11" style="stroke: #A80036; stroke-width: 1.0;"/><path d="M252.8281,31.3125 L253.2188,32.2969 L252.8281,32.2969 C252.375,32.2969 252.2656,32.3125 252.1094,32.4219 C251.8594,32.5781 251.7031,32.8594 251.7031,33.1563 C251.7031,33.4219 251.8438,33.6719 252.0625,33.8281 C252.2031,33.9531 252.4063,34 252.8281,34 L255.1875,34 C255.5469,34 255.7656,33.9688 255.9063,33.875 C256.1563,33.7344 256.3125,33.4375 256.3125,33.1563 C256.3125,32.875 256.1719,32.625 255.9531,32.4688 C255.7813,32.3281 255.625,32.2969 255.1563,32.2969 L251.7656,24.0938 L248.0938,24.0938 C247.6406,24.0938 247.5156,24.1094 247.3594,24.2031 C247.1094,24.375 246.9531,24.6563 246.9531,24.9375 C246.9531,25.2188 247.0938,25.4688 247.3125,25.6406 C247.4844,25.75 247.6563,25.7813 248.0938,25.7813 L249.1719,25.7813 L246.5313,32.2969 C246.1094,32.2969 245.9531,32.3125 245.7969,32.4219 C245.5469,32.5781 245.3906,32.8594 245.3906,33.1563 C245.3906,33.7188 245.7656,34 246.5156,34 L248.7813,34 C249.1406,34 249.3594,33.9688 249.4844,33.875 C249.75,33.7344 249.8906,33.4375 249.8906,33.1563 C249.8906,32.875 249.7656,32.625 249.5469,32.4531 C249.375,32.3281 249.2344,32.2969 248.7813,32.2969 L248.3906,32.2969 L248.7813,31.3125 L252.8281,31.3125 Z M252.125,29.6094 L249.4531,29.6094 L250.7969,26.3438 L252.125,29.6094 Z "/><text fill="#000000" font-family="sans-serif" font-size="12" font-style="italic" lengthAdjust="spacingAndGlyphs" textLength="32" x="271.25" y="33.6543">State</text><line style="stroke: #A80036; stroke-width: 1.5;" x1="193" x2="349" y1="45.5" y2="45.5"/><text fill="#000000" font-family="sans-serif" font-size="11" lengthAdjust="spacingAndGlyphs" textLength="146" x="198" y="59.7104">~squares : Array&lt;String&gt;</text><line style="stroke: #A80036; stroke-width: 1.5;" x1="193" x2="349" y1="66.3047" y2="66.3047"/><!--MD5=[c045e12321b83266d36d22b9096c24ea]
class View--><rect codeLine="13" fill="#FEFECE" filter="url(#fw2p91ml8eprd)" height="60.8047" id="View" style="stroke: #A80036; stroke-width: 1.5;" width="150" x="7" y="141"/><ellipse cx="63.75" cy="157" fill="#B4A7E5" rx="11" ry="11" style="stroke: #A80036; stroke-width: 1.0;"/><path d="M64.7031,153.7813 L66.4219,153.7813 C66.8125,153.7813 67,153.75 67.125,153.6719 C67.3906,153.5156 67.5313,153.2344 67.5313,152.9375 C67.5313,152.6719 67.4219,152.4063 67.1875,152.2344 C67.0156,152.125 66.875,152.0938 66.4219,152.0938 L61.2813,152.0938 C60.8438,152.0938 60.7188,152.1094 60.5625,152.2031 C60.3125,152.3594 60.1563,152.6563 60.1563,152.9375 C60.1563,153.2188 60.2969,153.4688 60.5156,153.6406 C60.6719,153.75 60.8594,153.7813 61.2813,153.7813 L63,153.7813 L63,160.2969 L61.2813,160.2969 C60.8438,160.2969 60.7188,160.3125 60.5625,160.4219 C60.3125,160.5781 60.1563,160.8594 60.1563,161.1563 C60.1563,161.4063 60.2969,161.6719 60.5156,161.8281 C60.6719,161.9531 60.875,162 61.2813,162 L66.4219,162 C67.1719,162 67.5313,161.7188 67.5313,161.1563 C67.5313,160.875 67.4219,160.625 67.1875,160.4531 C67.0156,160.3281 66.875,160.2969 66.4219,160.2969 L64.7031,160.2969 L64.7031,153.7813 Z "/><text fill="#000000" font-family="sans-serif" font-size="12" font-style="italic" lengthAdjust="spacingAndGlyphs" textLength="28" x="84.25" y="161.1543">View</text><line style="stroke: #A80036; stroke-width: 1.5;" x1="8" x2="156" y1="173" y2="173"/><line style="stroke: #A80036; stroke-width: 1.5;" x1="8" x2="156" y1="181" y2="181"/><text fill="#000000" font-family="sans-serif" font-size="11" lengthAdjust="spacingAndGlyphs" textLength="57" x="13" y="195.2104">+update()</text><!--MD5=[680da7a522096492fc62467c7a6dd068]
link Controller to State--><!--MD5=[01a2e04289eefa46970f9de88ad0aba9]
link Controller to View--><!--MD5=[8b4964254ba785d92567e83f2962edff]
@startuml
skinparam classAttributeIconSize 0
skinparam MinClassWidth 150

class Controller {
  -Int? checkCell
  #State step()
}

abstract class State {
   ~squares : Array<String>
}

interface View {
    +update()
}
@enduml

PlantUML version 1.2020.20beta2(Unknown compile time)
(GPL source distribution)
Java Runtime: Java(TM) SE Runtime Environment
JVM: Java HotSpot(TM) 64-Bit Server VM
Default Encoding: UTF-8
Language: en
Country: US
--></g></svg>