<?xml version="1.0" encoding="UTF-8" standalone="no"?><svg xmlns="http://www.w3.org/2000/svg" xmlns:xlink="http://www.w3.org/1999/xlink" contentScriptType="application/ecmascript" contentStyleType="text/css" height="177px" preserveAspectRatio="none" style="width:171px;height:177px;" version="1.1" viewBox="0 0 171 177" width="171px" zoomAndPan="magnify"><defs><filter height="300%" id="fc2jqupmuxiqf" width="300%" x="-1" y="-1"><feGaussianBlur result="blurOut" stdDeviation="2.0"/><feColorMatrix in="blurOut" result="blurOut2" type="matrix" values="0 0 0 0 0 0 0 0 0 0 0 0 0 0 0 0 0 0 .4 0"/><feOffset dx="4.0" dy="4.0" in="blurOut2" result="blurOut3"/><feBlend in="SourceGraphic" in2="blurOut3" mode="normal"/></filter></defs><g><!--MD5=[a46ee5ce0ceb0380cf446a08a056dce4]
class A--><rect codeLine="4" fill="#FEFECE" filter="url(#fc2jqupmuxiqf)" height="48" id="A" style="stroke: #A80036; stroke-width: 1.5;" width="150" x="7" y="7"/><ellipse cx="73.75" cy="23" fill="#ADD1B2" rx="11" ry="11" style="stroke: #A80036; stroke-width: 1.0;"/><path d="M76.0938,18.6719 C75.1563,18.2344 74.5625,18.0938 73.6875,18.0938 C71.0625,18.0938 69.0625,20.1719 69.0625,22.8906 L69.0625,24.0156 C69.0625,26.5938 71.1719,28.4844 74.0625,28.4844 C75.2813,28.4844 76.4375,28.1875 77.1875,27.6406 C77.7656,27.2344 78.0938,26.7813 78.0938,26.3906 C78.0938,25.9375 77.7031,25.5469 77.2344,25.5469 C77.0156,25.5469 76.8125,25.625 76.625,25.8125 C76.1719,26.2969 76.1719,26.2969 75.9844,26.3906 C75.5625,26.6563 74.875,26.7813 74.1094,26.7813 C72.0625,26.7813 70.7656,25.6875 70.7656,23.9844 L70.7656,22.8906 C70.7656,21.1094 72.0156,19.7969 73.75,19.7969 C74.3281,19.7969 74.9375,19.9531 75.4063,20.2031 C75.8906,20.4844 76.0625,20.7031 76.1563,21.1094 C76.2188,21.5156 76.25,21.6406 76.3906,21.7656 C76.5313,21.9063 76.7656,22.0156 76.9844,22.0156 C77.25,22.0156 77.5156,21.875 77.6875,21.6563 C77.7969,21.5 77.8281,21.3125 77.8281,20.8906 L77.8281,19.4688 C77.8281,19.0313 77.8125,18.9063 77.7188,18.75 C77.5625,18.4844 77.2813,18.3438 76.9844,18.3438 C76.6875,18.3438 76.4844,18.4375 76.2656,18.75 L76.0938,18.6719 Z "/><text fill="#000000" font-family="sans-serif" font-size="12" lengthAdjust="spacingAndGlyphs" textLength="8" x="94.25" y="27.1543">A</text><line style="stroke: #A80036; stroke-width: 1.5;" x1="8" x2="156" y1="39" y2="39"/><line style="stroke: #A80036; stroke-width: 1.5;" x1="8" x2="156" y1="47" y2="47"/><!--MD5=[69c451c751c414e37549b782190fef46]
class B--><rect codeLine="5" fill="#FEFECE" filter="url(#fc2jqupmuxiqf)" height="48" id="B" style="stroke: #A80036; stroke-width: 1.5;" width="150" x="7" y="115"/><ellipse cx="73.75" cy="131" fill="#ADD1B2" rx="11" ry="11" style="stroke: #A80036; stroke-width: 1.0;"/><path d="M76.0938,126.6719 C75.1563,126.2344 74.5625,126.0938 73.6875,126.0938 C71.0625,126.0938 69.0625,128.1719 69.0625,130.8906 L69.0625,132.0156 C69.0625,134.5938 71.1719,136.4844 74.0625,136.4844 C75.2813,136.4844 76.4375,136.1875 77.1875,135.6406 C77.7656,135.2344 78.0938,134.7813 78.0938,134.3906 C78.0938,133.9375 77.7031,133.5469 77.2344,133.5469 C77.0156,133.5469 76.8125,133.625 76.625,133.8125 C76.1719,134.2969 76.1719,134.2969 75.9844,134.3906 C75.5625,134.6563 74.875,134.7813 74.1094,134.7813 C72.0625,134.7813 70.7656,133.6875 70.7656,131.9844 L70.7656,130.8906 C70.7656,129.1094 72.0156,127.7969 73.75,127.7969 C74.3281,127.7969 74.9375,127.9531 75.4063,128.2031 C75.8906,128.4844 76.0625,128.7031 76.1563,129.1094 C76.2188,129.5156 76.25,129.6406 76.3906,129.7656 C76.5313,129.9063 76.7656,130.0156 76.9844,130.0156 C77.25,130.0156 77.5156,129.875 77.6875,129.6563 C77.7969,129.5 77.8281,129.3125 77.8281,128.8906 L77.8281,127.4688 C77.8281,127.0313 77.8125,126.9063 77.7188,126.75 C77.5625,126.4844 77.2813,126.3438 76.9844,126.3438 C76.6875,126.3438 76.4844,126.4375 76.2656,126.75 L76.0938,126.6719 Z "/><text fill="#000000" font-family="sans-serif" font-size="12" lengthAdjust="spacingAndGlyphs" textLength="8" x="94.25" y="135.1543">B</text><line style="stroke: #A80036; stroke-width: 1.5;" x1="8" x2="156" y1="147" y2="147"/><line style="stroke: #A80036; stroke-width: 1.5;" x1="8" x2="156" y1="155" y2="155"/><!--MD5=[81500ff05264bba268bb228b65a49ed8]
reverse link A to B--><path codeLine="7" d="M82,60.131 C82,77.1538 82,98.6037 82,114.6784 " fill="none" id="A-backto-B" style="stroke: #A80036; stroke-width: 1.0; stroke-dasharray: 7.0,7.0;"/><polygon fill="#A80036" points="82,55,78,64,82,60,86,64,82,55" style="stroke: #A80036; stroke-width: 1.0;"/><!--MD5=[4206219f81370229d9e502c612bd6929]
@startuml
skinparam classAttributeIconSize 0
skinparam MinClassWidth 150

class A
class B

A <.. B
@enduml

PlantUML version 1.2020.20beta2(Unknown compile time)
(GPL source distribution)
Java Runtime: Java(TM) SE Runtime Environment
JVM: Java HotSpot(TM) 64-Bit Server VM
Default Encoding: UTF-8
Language: en
Country: US
--></g></svg>